<svg width="1600" height="900" viewBox="0 0 1600 900" fill="none" xmlns="http://www.w3.org/2000/svg">
<rect width="1600" height="900" fill="url(#paint0_linear_11_2)"/>
<path d="M447.221 600.4C445.514 600.4 443.887 600.133 442.341 599.6C440.794 599.067 439.447 598.32 438.301 597.36C437.154 596.4 436.314 595.293 435.781 594.04C435.514 593.48 435.514 592.96 435.781 592.48C436.074 592 436.554 591.693 437.221 591.56C437.701 591.453 438.167 591.533 438.621 591.8C439.101 592.04 439.461 592.413 439.701 592.92C440.021 593.587 440.541 594.2 441.261 594.76C442.007 595.32 442.901 595.773 443.941 596.12C444.981 596.467 446.074 596.64 447.221 596.64C448.501 596.64 449.674 596.44 450.741 596.04C451.834 595.64 452.714 595.067 453.381 594.32C454.047 593.547 454.381 592.6 454.381 591.48C454.381 590.067 453.821 588.8 452.701 587.68C451.607 586.56 449.794 585.867 447.261 585.6C443.954 585.28 441.354 584.307 439.461 582.68C437.567 581.053 436.621 579.04 436.621 576.64C436.621 574.88 437.114 573.387 438.101 572.16C439.087 570.933 440.421 570 442.101 569.36C443.807 568.72 445.701 568.4 447.781 568.4C449.407 568.4 450.821 568.627 452.021 569.08C453.247 569.533 454.314 570.16 455.221 570.96C456.127 571.76 456.914 572.707 457.581 573.8C457.954 574.387 458.101 574.947 458.021 575.48C457.967 575.987 457.714 576.387 457.261 576.68C456.754 577 456.207 577.067 455.621 576.88C455.034 576.693 454.594 576.347 454.301 575.84C453.874 575.067 453.354 574.413 452.741 573.88C452.127 573.347 451.407 572.933 450.581 572.64C449.754 572.32 448.781 572.16 447.661 572.16C445.687 572.133 444.034 572.507 442.701 573.28C441.367 574.027 440.701 575.187 440.701 576.76C440.701 577.56 440.901 578.333 441.301 579.08C441.727 579.8 442.487 580.427 443.581 580.96C444.701 581.493 446.301 581.867 448.381 582.08C451.554 582.4 454.021 583.373 455.781 585C457.567 586.6 458.461 588.72 458.461 591.36C458.461 592.88 458.141 594.2 457.501 595.32C456.887 596.44 456.047 597.387 454.981 598.16C453.941 598.907 452.741 599.467 451.381 599.84C450.047 600.213 448.661 600.4 447.221 600.4ZM474.36 600.16C472.2 600.16 470.293 599.693 468.64 598.76C466.987 597.8 465.68 596.493 464.72 594.84C463.787 593.16 463.32 591.24 463.32 589.08C463.32 586.893 463.787 584.973 464.72 583.32C465.68 581.64 466.987 580.333 468.64 579.4C470.293 578.44 472.2 577.96 474.36 577.96C476.493 577.96 478.387 578.44 480.04 579.4C481.693 580.333 482.987 581.64 483.92 583.32C484.88 584.973 485.36 586.893 485.36 589.08C485.36 591.24 484.893 593.16 483.96 594.84C483.027 596.493 481.733 597.8 480.08 598.76C478.427 599.693 476.52 600.16 474.36 600.16ZM474.36 596.56C475.747 596.56 476.973 596.24 478.04 595.6C479.107 594.96 479.933 594.08 480.52 592.96C481.133 591.84 481.44 590.547 481.44 589.08C481.44 587.613 481.133 586.32 480.52 585.2C479.933 584.053 479.107 583.16 478.04 582.52C476.973 581.88 475.747 581.56 474.36 581.56C472.973 581.56 471.747 581.88 470.68 582.52C469.613 583.16 468.773 584.053 468.16 585.2C467.547 586.32 467.24 587.613 467.24 589.08C467.24 590.547 467.547 591.84 468.16 592.96C468.773 594.08 469.613 594.96 470.68 595.6C471.747 596.24 472.973 596.56 474.36 596.56ZM493.792 600C493.285 600 492.832 599.813 492.432 599.44C492.032 599.067 491.832 598.573 491.832 597.96V578.24C491.832 576.32 492.205 574.653 492.952 573.24C493.725 571.827 494.792 570.733 496.152 569.96C497.512 569.16 499.085 568.76 500.872 568.76C501.459 568.76 501.939 568.933 502.312 569.28C502.712 569.627 502.912 570.067 502.912 570.6C502.912 571.107 502.712 571.547 502.312 571.92C501.939 572.267 501.459 572.44 500.872 572.44C499.885 572.44 499.019 572.667 498.272 573.12C497.525 573.573 496.939 574.2 496.512 575C496.112 575.8 495.912 576.747 495.912 577.84V597.96C495.912 598.573 495.725 599.067 495.352 599.44C494.979 599.813 494.459 600 493.792 600ZM490.112 582.36C489.552 582.36 489.099 582.2 488.752 581.88C488.405 581.56 488.232 581.16 488.232 580.68C488.232 580.147 488.405 579.72 488.752 579.4C489.099 579.08 489.552 578.92 490.112 578.92H499.992C500.552 578.92 501.005 579.08 501.352 579.4C501.699 579.72 501.872 580.147 501.872 580.68C501.872 581.16 501.699 581.56 501.352 581.88C501.005 582.2 500.552 582.36 499.992 582.36H490.112ZM514.08 600C512.746 600 511.546 599.667 510.48 599C509.413 598.307 508.573 597.373 507.96 596.2C507.346 595.027 507.04 593.707 507.04 592.24V573.16C507.04 572.573 507.226 572.093 507.6 571.72C507.973 571.347 508.453 571.16 509.04 571.16C509.626 571.16 510.106 571.347 510.48 571.72C510.853 572.093 511.04 572.573 511.04 573.16V592.24C511.04 593.307 511.333 594.2 511.92 594.92C512.506 595.64 513.226 596 514.08 596H515.44C515.92 596 516.32 596.187 516.64 596.56C516.986 596.933 517.16 597.413 517.16 598C517.16 598.587 516.933 599.067 516.48 599.44C516.053 599.813 515.493 600 514.8 600H514.08ZM505.2 582.36C504.64 582.36 504.186 582.2 503.84 581.88C503.493 581.56 503.32 581.16 503.32 580.68C503.32 580.147 503.493 579.72 503.84 579.4C504.186 579.08 504.64 578.92 505.2 578.92H514.44C515 578.92 515.453 579.08 515.8 579.4C516.146 579.72 516.32 580.147 516.32 580.68C516.32 581.16 516.146 581.56 515.8 581.88C515.453 582.2 515 582.36 514.44 582.36H505.2ZM527.214 600C526.788 600 526.388 599.88 526.014 599.64C525.668 599.373 525.428 599.053 525.294 598.68L519.374 580.92C519.161 580.093 519.161 579.427 519.374 578.92C519.614 578.387 520.121 578.12 520.894 578.12C521.401 578.12 521.814 578.267 522.134 578.56C522.481 578.827 522.761 579.293 522.974 579.96L528.014 595.72H526.614L531.374 579.64C531.508 579.187 531.734 578.827 532.054 578.56C532.374 578.267 532.814 578.12 533.374 578.12C533.908 578.12 534.334 578.267 534.654 578.56C535.001 578.827 535.228 579.187 535.334 579.64L539.214 594.76H538.614L543.334 579.96C543.708 578.733 544.401 578.12 545.414 578.12C546.161 578.12 546.668 578.387 546.934 578.92C547.201 579.427 547.188 580.093 546.894 580.92L540.974 598.68C540.868 599.053 540.641 599.373 540.294 599.64C539.948 599.88 539.548 600 539.094 600C538.668 600 538.268 599.88 537.894 599.64C537.521 599.373 537.281 599.053 537.174 598.68L533.054 583.44H533.454L529.134 598.68C529.028 599.053 528.788 599.373 528.414 599.64C528.068 599.88 527.668 600 527.214 600ZM559.615 600.16C557.668 600.16 555.921 599.68 554.375 598.72C552.828 597.733 551.601 596.413 550.695 594.76C549.815 593.08 549.375 591.187 549.375 589.08C549.375 586.973 549.855 585.08 550.815 583.4C551.801 581.72 553.121 580.4 554.775 579.44C556.455 578.453 558.335 577.96 560.415 577.96C562.495 577.96 564.361 578.453 566.015 579.44C567.668 580.4 568.975 581.72 569.935 583.4C570.921 585.08 571.415 586.973 571.415 589.08H569.855C569.855 591.187 569.401 593.08 568.495 594.76C567.615 596.413 566.401 597.733 564.855 598.72C563.308 599.68 561.561 600.16 559.615 600.16ZM560.415 596.56C561.775 596.56 562.988 596.24 564.055 595.6C565.121 594.933 565.961 594.04 566.575 592.92C567.188 591.773 567.495 590.493 567.495 589.08C567.495 587.64 567.188 586.36 566.575 585.24C565.961 584.093 565.121 583.2 564.055 582.56C562.988 581.893 561.775 581.56 560.415 581.56C559.081 581.56 557.868 581.893 556.775 582.56C555.708 583.2 554.855 584.093 554.215 585.24C553.601 586.36 553.295 587.64 553.295 589.08C553.295 590.493 553.601 591.773 554.215 592.92C554.855 594.04 555.708 594.933 556.775 595.6C557.868 596.24 559.081 596.56 560.415 596.56ZM569.375 600.04C568.788 600.04 568.295 599.853 567.895 599.48C567.521 599.08 567.335 598.587 567.335 598V591.88L568.095 587.64L571.415 589.08V598C571.415 598.587 571.215 599.08 570.815 599.48C570.441 599.853 569.961 600.04 569.375 600.04ZM579.447 586.32C579.447 584.72 579.833 583.293 580.607 582.04C581.407 580.76 582.473 579.747 583.807 579C585.14 578.253 586.607 577.88 588.207 577.88C589.807 577.88 590.993 578.147 591.767 578.68C592.567 579.187 592.873 579.8 592.687 580.52C592.607 580.893 592.447 581.187 592.207 581.4C591.993 581.587 591.74 581.707 591.447 581.76C591.153 581.813 590.833 581.8 590.487 581.72C588.78 581.373 587.247 581.347 585.887 581.64C584.527 581.933 583.447 582.48 582.647 583.28C581.873 584.08 581.487 585.093 581.487 586.32H579.447ZM579.487 600C578.847 600 578.353 599.84 578.007 599.52C577.66 599.173 577.487 598.667 577.487 598V580.12C577.487 579.48 577.66 578.987 578.007 578.64C578.353 578.293 578.847 578.12 579.487 578.12C580.153 578.12 580.647 578.293 580.967 578.64C581.313 578.96 581.487 579.453 581.487 580.12V598C581.487 598.64 581.313 599.133 580.967 599.48C580.647 599.827 580.153 600 579.487 600ZM605.618 600.16C603.405 600.16 601.432 599.693 599.698 598.76C597.992 597.8 596.645 596.493 595.658 594.84C594.698 593.16 594.218 591.24 594.218 589.08C594.218 586.893 594.672 584.973 595.578 583.32C596.512 581.64 597.792 580.333 599.418 579.4C601.045 578.44 602.912 577.96 605.018 577.96C607.098 577.96 608.885 578.427 610.378 579.36C611.872 580.267 613.005 581.533 613.778 583.16C614.578 584.76 614.978 586.613 614.978 588.72C614.978 589.227 614.805 589.653 614.458 590C614.112 590.32 613.672 590.48 613.138 590.48H597.018V587.28H613.018L611.378 588.4C611.352 587.067 611.085 585.88 610.578 584.84C610.072 583.773 609.352 582.933 608.418 582.32C607.485 581.707 606.352 581.4 605.018 581.4C603.498 581.4 602.192 581.733 601.098 582.4C600.032 583.067 599.218 583.987 598.658 585.16C598.098 586.307 597.818 587.613 597.818 589.08C597.818 590.547 598.152 591.853 598.818 593C599.485 594.147 600.405 595.053 601.578 595.72C602.752 596.387 604.098 596.72 605.618 596.72C606.445 596.72 607.285 596.573 608.138 596.28C609.018 595.96 609.725 595.6 610.258 595.2C610.658 594.907 611.085 594.76 611.538 594.76C612.018 594.733 612.432 594.867 612.778 595.16C613.232 595.56 613.472 596 613.498 596.48C613.525 596.96 613.312 597.373 612.858 597.72C611.952 598.44 610.818 599.027 609.458 599.48C608.125 599.933 606.845 600.16 605.618 600.16ZM634.381 600C633.794 600 633.301 599.8 632.901 599.4C632.501 599 632.301 598.507 632.301 597.92V570.84C632.301 570.227 632.501 569.733 632.901 569.36C633.301 568.96 633.794 568.76 634.381 568.76H652.461C653.074 568.76 653.567 568.947 653.941 569.32C654.314 569.667 654.501 570.133 654.501 570.72C654.501 571.28 654.314 571.733 653.941 572.08C653.567 572.427 653.074 572.6 652.461 572.6H636.461V582.32H647.941C648.554 582.32 649.047 582.507 649.421 582.88C649.794 583.227 649.981 583.68 649.981 584.24C649.981 584.8 649.794 585.267 649.421 585.64C649.047 585.987 648.554 586.16 647.941 586.16H636.461V596.16H652.461C653.074 596.16 653.567 596.333 653.941 596.68C654.314 597.027 654.501 597.48 654.501 598.04C654.501 598.627 654.314 599.107 653.941 599.48C653.567 599.827 653.074 600 652.461 600H634.381ZM678.389 600.04C677.802 600.04 677.309 599.853 676.909 599.48C676.535 599.08 676.349 598.587 676.349 598V588.16C676.349 586.64 676.069 585.4 675.509 584.44C674.949 583.48 674.189 582.773 673.229 582.32C672.295 581.84 671.215 581.6 669.989 581.6C668.869 581.6 667.855 581.827 666.949 582.28C666.042 582.733 665.322 583.347 664.789 584.12C664.255 584.867 663.989 585.733 663.989 586.72H661.469C661.469 585.04 661.869 583.547 662.669 582.24C663.495 580.907 664.615 579.853 666.029 579.08C667.442 578.307 669.029 577.92 670.789 577.92C672.629 577.92 674.269 578.32 675.709 579.12C677.175 579.893 678.322 581.04 679.149 582.56C680.002 584.08 680.429 585.947 680.429 588.16V598C680.429 598.587 680.229 599.08 679.829 599.48C679.455 599.853 678.975 600.04 678.389 600.04ZM661.949 600.04C661.362 600.04 660.869 599.853 660.469 599.48C660.095 599.08 659.909 598.587 659.909 598V580.16C659.909 579.547 660.095 579.053 660.469 578.68C660.869 578.307 661.362 578.12 661.949 578.12C662.562 578.12 663.055 578.307 663.429 578.68C663.802 579.053 663.989 579.547 663.989 580.16V598C663.989 598.587 663.802 599.08 663.429 599.48C663.055 599.853 662.562 600.04 661.949 600.04ZM696.294 600.16C694.294 600.16 692.521 599.693 690.974 598.76C689.454 597.8 688.254 596.493 687.374 594.84C686.494 593.16 686.054 591.24 686.054 589.08C686.054 586.893 686.521 584.973 687.454 583.32C688.414 581.64 689.721 580.333 691.374 579.4C693.028 578.44 694.934 577.96 697.094 577.96C699.228 577.96 701.121 578.44 702.774 579.4C704.428 580.333 705.721 581.64 706.654 583.32C707.614 584.973 708.094 586.893 708.094 589.08H705.734C705.734 591.24 705.321 593.16 704.494 594.84C703.694 596.493 702.588 597.8 701.174 598.76C699.761 599.693 698.134 600.16 696.294 600.16ZM697.014 609.08C695.121 609.08 693.348 608.707 691.694 607.96C690.041 607.213 688.641 606.12 687.494 604.68C687.148 604.227 687.014 603.76 687.094 603.28C687.201 602.8 687.468 602.413 687.894 602.12C688.374 601.8 688.868 601.693 689.374 601.8C689.908 601.907 690.334 602.173 690.654 602.6C691.374 603.507 692.281 604.213 693.374 604.72C694.468 605.227 695.708 605.48 697.094 605.48C698.374 605.48 699.548 605.173 700.614 604.56C701.708 603.947 702.574 603.04 703.214 601.84C703.854 600.64 704.174 599.173 704.174 597.44V591.76L705.494 588.24L708.094 589.08V597.72C708.094 599.827 707.628 601.733 706.694 603.44C705.761 605.173 704.454 606.547 702.774 607.56C701.121 608.573 699.201 609.08 697.014 609.08ZM697.094 596.56C698.481 596.56 699.708 596.24 700.774 595.6C701.841 594.96 702.668 594.08 703.254 592.96C703.868 591.84 704.174 590.547 704.174 589.08C704.174 587.613 703.868 586.32 703.254 585.2C702.668 584.053 701.841 583.16 700.774 582.52C699.708 581.88 698.481 581.56 697.094 581.56C695.708 581.56 694.481 581.88 693.414 582.52C692.348 583.16 691.508 584.053 690.894 585.2C690.281 586.32 689.974 587.613 689.974 589.08C689.974 590.547 690.281 591.84 690.894 592.96C691.508 594.08 692.348 594.96 693.414 595.6C694.481 596.24 695.708 596.56 697.094 596.56ZM716.606 600C716.02 600 715.526 599.813 715.126 599.44C714.753 599.04 714.566 598.547 714.566 597.96V580.16C714.566 579.547 714.753 579.053 715.126 578.68C715.526 578.307 716.02 578.12 716.606 578.12C717.22 578.12 717.713 578.307 718.086 578.68C718.46 579.053 718.646 579.547 718.646 580.16V597.96C718.646 598.547 718.46 599.04 718.086 599.44C717.713 599.813 717.22 600 716.606 600ZM716.606 574.56C715.886 574.56 715.26 574.307 714.726 573.8C714.22 573.267 713.966 572.64 713.966 571.92C713.966 571.2 714.22 570.587 714.726 570.08C715.26 569.547 715.886 569.28 716.606 569.28C717.326 569.28 717.94 569.547 718.446 570.08C718.98 570.587 719.246 571.2 719.246 571.92C719.246 572.64 718.98 573.267 718.446 573.8C717.94 574.307 717.326 574.56 716.606 574.56ZM744.717 600.04C744.13 600.04 743.637 599.853 743.237 599.48C742.863 599.08 742.677 598.587 742.677 598V588.16C742.677 586.64 742.397 585.4 741.837 584.44C741.277 583.48 740.517 582.773 739.557 582.32C738.623 581.84 737.543 581.6 736.317 581.6C735.197 581.6 734.183 581.827 733.277 582.28C732.37 582.733 731.65 583.347 731.117 584.12C730.583 584.867 730.317 585.733 730.317 586.72H727.797C727.797 585.04 728.197 583.547 728.997 582.24C729.823 580.907 730.943 579.853 732.357 579.08C733.77 578.307 735.357 577.92 737.117 577.92C738.957 577.92 740.597 578.32 742.037 579.12C743.503 579.893 744.65 581.04 745.477 582.56C746.33 584.08 746.757 585.947 746.757 588.16V598C746.757 598.587 746.557 599.08 746.157 599.48C745.783 599.853 745.303 600.04 744.717 600.04ZM728.277 600.04C727.69 600.04 727.197 599.853 726.797 599.48C726.423 599.08 726.237 598.587 726.237 598V580.16C726.237 579.547 726.423 579.053 726.797 578.68C727.197 578.307 727.69 578.12 728.277 578.12C728.89 578.12 729.383 578.307 729.757 578.68C730.13 579.053 730.317 579.547 730.317 580.16V598C730.317 598.587 730.13 599.08 729.757 599.48C729.383 599.853 728.89 600.04 728.277 600.04ZM763.782 600.16C761.569 600.16 759.596 599.693 757.862 598.76C756.156 597.8 754.809 596.493 753.822 594.84C752.862 593.16 752.382 591.24 752.382 589.08C752.382 586.893 752.836 584.973 753.742 583.32C754.676 581.64 755.956 580.333 757.582 579.4C759.209 578.44 761.076 577.96 763.182 577.96C765.262 577.96 767.049 578.427 768.542 579.36C770.036 580.267 771.169 581.533 771.942 583.16C772.742 584.76 773.142 586.613 773.142 588.72C773.142 589.227 772.969 589.653 772.622 590C772.276 590.32 771.836 590.48 771.302 590.48H755.182V587.28H771.182L769.542 588.4C769.516 587.067 769.249 585.88 768.742 584.84C768.236 583.773 767.516 582.933 766.582 582.32C765.649 581.707 764.516 581.4 763.182 581.4C761.662 581.4 760.356 581.733 759.262 582.4C758.196 583.067 757.382 583.987 756.822 585.16C756.262 586.307 755.982 587.613 755.982 589.08C755.982 590.547 756.316 591.853 756.982 593C757.649 594.147 758.569 595.053 759.742 595.72C760.916 596.387 762.262 596.72 763.782 596.72C764.609 596.72 765.449 596.573 766.302 596.28C767.182 595.96 767.889 595.6 768.422 595.2C768.822 594.907 769.249 594.76 769.702 594.76C770.182 594.733 770.596 594.867 770.942 595.16C771.396 595.56 771.636 596 771.662 596.48C771.689 596.96 771.476 597.373 771.022 597.72C770.116 598.44 768.982 599.027 767.622 599.48C766.289 599.933 765.009 600.16 763.782 600.16ZM787.845 600.16C785.632 600.16 783.658 599.693 781.925 598.76C780.218 597.8 778.872 596.493 777.885 594.84C776.925 593.16 776.445 591.24 776.445 589.08C776.445 586.893 776.898 584.973 777.805 583.32C778.738 581.64 780.018 580.333 781.645 579.4C783.272 578.44 785.138 577.96 787.245 577.96C789.325 577.96 791.112 578.427 792.605 579.36C794.098 580.267 795.232 581.533 796.005 583.16C796.805 584.76 797.205 586.613 797.205 588.72C797.205 589.227 797.032 589.653 796.685 590C796.338 590.32 795.898 590.48 795.365 590.48H779.245V587.28H795.245L793.605 588.4C793.578 587.067 793.312 585.88 792.805 584.84C792.298 583.773 791.578 582.933 790.645 582.32C789.712 581.707 788.578 581.4 787.245 581.4C785.725 581.4 784.418 581.733 783.325 582.4C782.258 583.067 781.445 583.987 780.885 585.16C780.325 586.307 780.045 587.613 780.045 589.08C780.045 590.547 780.378 591.853 781.045 593C781.712 594.147 782.632 595.053 783.805 595.72C784.978 596.387 786.325 596.72 787.845 596.72C788.672 596.72 789.512 596.573 790.365 596.28C791.245 595.96 791.952 595.6 792.485 595.2C792.885 594.907 793.312 594.76 793.765 594.76C794.245 594.733 794.658 594.867 795.005 595.16C795.458 595.56 795.698 596 795.725 596.48C795.752 596.96 795.538 597.373 795.085 597.72C794.178 598.44 793.045 599.027 791.685 599.48C790.352 599.933 789.072 600.16 787.845 600.16ZM804.369 586.32C804.369 584.72 804.755 583.293 805.529 582.04C806.329 580.76 807.395 579.747 808.729 579C810.062 578.253 811.529 577.88 813.129 577.88C814.729 577.88 815.915 578.147 816.689 578.68C817.489 579.187 817.795 579.8 817.609 580.52C817.529 580.893 817.369 581.187 817.129 581.4C816.915 581.587 816.662 581.707 816.369 581.76C816.075 581.813 815.755 581.8 815.409 581.72C813.702 581.373 812.169 581.347 810.809 581.64C809.449 581.933 808.369 582.48 807.569 583.28C806.795 584.08 806.409 585.093 806.409 586.32H804.369ZM804.409 600C803.769 600 803.275 599.84 802.929 599.52C802.582 599.173 802.409 598.667 802.409 598V580.12C802.409 579.48 802.582 578.987 802.929 578.64C803.275 578.293 803.769 578.12 804.409 578.12C805.075 578.12 805.569 578.293 805.889 578.64C806.235 578.96 806.409 579.453 806.409 580.12V598C806.409 598.64 806.235 599.133 805.889 599.48C805.569 599.827 805.075 600 804.409 600ZM837.9 609.36C837.314 609.36 836.82 609.16 836.42 608.76C836.047 608.387 835.86 607.907 835.86 607.32V570.8C835.86 570.213 836.047 569.733 836.42 569.36C836.82 568.96 837.314 568.76 837.9 568.76C838.514 568.76 839.007 568.96 839.38 569.36C839.754 569.733 839.94 570.213 839.94 570.8V607.32C839.94 607.907 839.754 608.387 839.38 608.76C839.007 609.16 838.514 609.36 837.9 609.36ZM867.964 600C867.484 600 867.058 599.853 866.684 599.56C866.311 599.267 866.044 598.867 865.884 598.36L857.844 571.64C857.578 570.76 857.591 570.067 857.884 569.56C858.204 569.027 858.711 568.76 859.404 568.76C859.858 568.76 860.271 568.893 860.644 569.16C861.018 569.4 861.284 569.787 861.444 570.32L868.444 594.72H867.564L874.044 570.56C874.151 570.16 874.391 569.827 874.764 569.56C875.138 569.293 875.564 569.16 876.044 569.16C876.471 569.16 876.871 569.28 877.244 569.52C877.644 569.733 877.898 570.067 878.004 570.52L884.524 594.72H883.724L890.764 570.12C891.031 569.213 891.711 568.76 892.804 568.76C893.551 568.76 894.031 569.053 894.244 569.64C894.458 570.2 894.458 570.867 894.244 571.64L886.204 598.32C886.018 598.827 885.738 599.24 885.364 599.56C885.018 599.853 884.604 600 884.124 600C883.618 600 883.178 599.84 882.804 599.52C882.458 599.2 882.204 598.813 882.044 598.36L875.604 573.48H876.564L870.044 598.32C869.858 598.827 869.578 599.24 869.204 599.56C868.858 599.853 868.444 600 867.964 600ZM904.329 600.16C902.116 600.16 900.143 599.693 898.409 598.76C896.703 597.8 895.356 596.493 894.369 594.84C893.409 593.16 892.929 591.24 892.929 589.08C892.929 586.893 893.383 584.973 894.289 583.32C895.223 581.64 896.503 580.333 898.129 579.4C899.756 578.44 901.623 577.96 903.729 577.96C905.809 577.96 907.596 578.427 909.089 579.36C910.583 580.267 911.716 581.533 912.489 583.16C913.289 584.76 913.689 586.613 913.689 588.72C913.689 589.227 913.516 589.653 913.169 590C912.823 590.32 912.383 590.48 911.849 590.48H895.729V587.28H911.729L910.089 588.4C910.063 587.067 909.796 585.88 909.289 584.84C908.783 583.773 908.063 582.933 907.129 582.32C906.196 581.707 905.063 581.4 903.729 581.4C902.209 581.4 900.903 581.733 899.809 582.4C898.743 583.067 897.929 583.987 897.369 585.16C896.809 586.307 896.529 587.613 896.529 589.08C896.529 590.547 896.863 591.853 897.529 593C898.196 594.147 899.116 595.053 900.289 595.72C901.463 596.387 902.809 596.72 904.329 596.72C905.156 596.72 905.996 596.573 906.849 596.28C907.729 595.96 908.436 595.6 908.969 595.2C909.369 594.907 909.796 594.76 910.249 594.76C910.729 594.733 911.143 594.867 911.489 595.16C911.943 595.56 912.183 596 912.209 596.48C912.236 596.96 912.023 597.373 911.569 597.72C910.663 598.44 909.529 599.027 908.169 599.48C906.836 599.933 905.556 600.16 904.329 600.16ZM929.893 600.16C927.813 600.16 925.946 599.68 924.293 598.72C922.64 597.733 921.333 596.4 920.373 594.72C919.413 593.04 918.92 591.147 918.893 589.04V570.8C918.893 570.187 919.08 569.693 919.453 569.32C919.853 568.947 920.346 568.76 920.933 568.76C921.546 568.76 922.04 568.947 922.413 569.32C922.786 569.693 922.973 570.187 922.973 570.8V581.6C923.906 580.48 925.026 579.6 926.333 578.96C927.666 578.293 929.12 577.96 930.693 577.96C932.64 577.96 934.386 578.453 935.933 579.44C937.48 580.4 938.693 581.72 939.573 583.4C940.48 585.053 940.933 586.933 940.933 589.04C940.933 591.147 940.44 593.04 939.453 594.72C938.493 596.4 937.186 597.733 935.533 598.72C933.88 599.68 932 600.16 929.893 600.16ZM929.893 596.56C931.253 596.56 932.466 596.24 933.533 595.6C934.6 594.933 935.44 594.027 936.053 592.88C936.693 591.733 937.013 590.453 937.013 589.04C937.013 587.6 936.693 586.32 936.053 585.2C935.44 584.08 934.6 583.2 933.533 582.56C932.466 581.893 931.253 581.56 929.893 581.56C928.56 581.56 927.346 581.893 926.253 582.56C925.186 583.2 924.346 584.08 923.733 585.2C923.12 586.32 922.813 587.6 922.813 589.04C922.813 590.453 923.12 591.733 923.733 592.88C924.346 594.027 925.186 594.933 926.253 595.6C927.346 596.24 928.56 596.56 929.893 596.56ZM961.217 600C960.63 600 960.137 599.8 959.737 599.4C959.337 599 959.137 598.507 959.137 597.92V570.84C959.137 570.227 959.337 569.733 959.737 569.36C960.137 568.96 960.63 568.76 961.217 568.76H968.457C970.75 568.76 972.83 569.147 974.697 569.92C976.59 570.667 978.23 571.747 979.617 573.16C981.003 574.547 982.07 576.187 982.817 578.08C983.563 579.973 983.937 582.067 983.937 584.36C983.937 586.653 983.563 588.76 982.817 590.68C982.07 592.573 981.003 594.227 979.617 595.64C978.23 597.027 976.59 598.107 974.697 598.88C972.83 599.627 970.75 600 968.457 600H961.217ZM963.297 596.32H968.457C970.697 596.32 972.67 595.813 974.377 594.8C976.11 593.76 977.47 592.347 978.457 590.56C979.443 588.747 979.937 586.68 979.937 584.36C979.937 582.013 979.443 579.947 978.457 578.16C977.47 576.373 976.11 574.973 974.377 573.96C972.67 572.947 970.697 572.44 968.457 572.44H963.297V596.32ZM1000.34 600.16C998.132 600.16 996.158 599.693 994.425 598.76C992.718 597.8 991.372 596.493 990.385 594.84C989.425 593.16 988.945 591.24 988.945 589.08C988.945 586.893 989.398 584.973 990.305 583.32C991.238 581.64 992.518 580.333 994.145 579.4C995.772 578.44 997.638 577.96 999.745 577.96C1001.82 577.96 1003.61 578.427 1005.1 579.36C1006.6 580.267 1007.73 581.533 1008.5 583.16C1009.3 584.76 1009.7 586.613 1009.7 588.72C1009.7 589.227 1009.53 589.653 1009.18 590C1008.84 590.32 1008.4 590.48 1007.86 590.48H991.745V587.28H1007.74L1006.1 588.4C1006.08 587.067 1005.81 585.88 1005.3 584.84C1004.8 583.773 1004.08 582.933 1003.14 582.32C1002.21 581.707 1001.08 581.4 999.745 581.4C998.225 581.4 996.918 581.733 995.825 582.4C994.758 583.067 993.945 583.987 993.385 585.16C992.825 586.307 992.545 587.613 992.545 589.08C992.545 590.547 992.878 591.853 993.545 593C994.212 594.147 995.132 595.053 996.305 595.72C997.478 596.387 998.825 596.72 1000.34 596.72C1001.17 596.72 1002.01 596.573 1002.86 596.28C1003.74 595.96 1004.45 595.6 1004.98 595.2C1005.38 594.907 1005.81 594.76 1006.26 594.76C1006.74 594.733 1007.16 594.867 1007.5 595.16C1007.96 595.56 1008.2 596 1008.22 596.48C1008.25 596.96 1008.04 597.373 1007.58 597.72C1006.68 598.44 1005.54 599.027 1004.18 599.48C1002.85 599.933 1001.57 600.16 1000.34 600.16ZM1021.53 599.96C1020.7 599.96 1020.06 599.52 1019.61 598.64L1011.13 580.76C1010.91 580.307 1010.89 579.867 1011.05 579.44C1011.23 578.987 1011.58 578.64 1012.09 578.4C1012.54 578.16 1012.99 578.12 1013.45 578.28C1013.93 578.44 1014.29 578.747 1014.53 579.2L1022.45 596.28H1020.53L1028.37 579.2C1028.61 578.747 1028.97 578.44 1029.45 578.28C1029.95 578.12 1030.46 578.16 1030.97 578.4C1031.45 578.613 1031.77 578.947 1031.93 579.4C1032.09 579.853 1032.06 580.307 1031.85 580.76L1023.37 598.64C1022.97 599.52 1022.35 599.96 1021.53 599.96ZM1045.54 600.16C1043.33 600.16 1041.35 599.693 1039.62 598.76C1037.91 597.8 1036.57 596.493 1035.58 594.84C1034.62 593.16 1034.14 591.24 1034.14 589.08C1034.14 586.893 1034.59 584.973 1035.5 583.32C1036.43 581.64 1037.71 580.333 1039.34 579.4C1040.97 578.44 1042.83 577.96 1044.94 577.96C1047.02 577.96 1048.81 578.427 1050.3 579.36C1051.79 580.267 1052.93 581.533 1053.7 583.16C1054.5 584.76 1054.9 586.613 1054.9 588.72C1054.9 589.227 1054.73 589.653 1054.38 590C1054.03 590.32 1053.59 590.48 1053.06 590.48H1036.94V587.28H1052.94L1051.3 588.4C1051.27 587.067 1051.01 585.88 1050.5 584.84C1049.99 583.773 1049.27 582.933 1048.34 582.32C1047.41 581.707 1046.27 581.4 1044.94 581.4C1043.42 581.4 1042.11 581.733 1041.02 582.4C1039.95 583.067 1039.14 583.987 1038.58 585.16C1038.02 586.307 1037.74 587.613 1037.74 589.08C1037.74 590.547 1038.07 591.853 1038.74 593C1039.41 594.147 1040.33 595.053 1041.5 595.72C1042.67 596.387 1044.02 596.72 1045.54 596.72C1046.37 596.72 1047.21 596.573 1048.06 596.28C1048.94 595.96 1049.65 595.6 1050.18 595.2C1050.58 594.907 1051.01 594.76 1051.46 594.76C1051.94 594.733 1052.35 594.867 1052.7 595.16C1053.15 595.56 1053.39 596 1053.42 596.48C1053.45 596.96 1053.23 597.373 1052.78 597.72C1051.87 598.44 1050.74 599.027 1049.38 599.48C1048.05 599.933 1046.77 600.16 1045.54 600.16ZM1065.3 600C1064.13 600 1063.09 599.68 1062.18 599.04C1061.28 598.4 1060.57 597.533 1060.06 596.44C1059.56 595.32 1059.3 594.04 1059.3 592.6V570.76C1059.3 570.173 1059.49 569.693 1059.86 569.32C1060.24 568.947 1060.72 568.76 1061.3 568.76C1061.89 568.76 1062.37 568.947 1062.74 569.32C1063.12 569.693 1063.3 570.173 1063.3 570.76V592.6C1063.3 593.587 1063.49 594.4 1063.86 595.04C1064.24 595.68 1064.72 596 1065.3 596H1066.3C1066.84 596 1067.26 596.187 1067.58 596.56C1067.93 596.933 1068.1 597.413 1068.1 598C1068.1 598.587 1067.85 599.067 1067.34 599.44C1066.84 599.813 1066.18 600 1065.38 600H1065.3ZM1080.81 600.16C1078.65 600.16 1076.74 599.693 1075.09 598.76C1073.43 597.8 1072.13 596.493 1071.17 594.84C1070.23 593.16 1069.77 591.24 1069.77 589.08C1069.77 586.893 1070.23 584.973 1071.17 583.32C1072.13 581.64 1073.43 580.333 1075.09 579.4C1076.74 578.44 1078.65 577.96 1080.81 577.96C1082.94 577.96 1084.83 578.44 1086.49 579.4C1088.14 580.333 1089.43 581.64 1090.37 583.32C1091.33 584.973 1091.81 586.893 1091.81 589.08C1091.81 591.24 1091.34 593.16 1090.41 594.84C1089.47 596.493 1088.18 597.8 1086.53 598.76C1084.87 599.693 1082.97 600.16 1080.81 600.16ZM1080.81 596.56C1082.19 596.56 1083.42 596.24 1084.49 595.6C1085.55 594.96 1086.38 594.08 1086.97 592.96C1087.58 591.84 1087.89 590.547 1087.89 589.08C1087.89 587.613 1087.58 586.32 1086.97 585.2C1086.38 584.053 1085.55 583.16 1084.49 582.52C1083.42 581.88 1082.19 581.56 1080.81 581.56C1079.42 581.56 1078.19 581.88 1077.13 582.52C1076.06 583.16 1075.22 584.053 1074.61 585.2C1073.99 586.32 1073.69 587.613 1073.69 589.08C1073.69 590.547 1073.99 591.84 1074.61 592.96C1075.22 594.08 1076.06 594.96 1077.13 595.6C1078.19 596.24 1079.42 596.56 1080.81 596.56ZM1099.92 609.36C1099.33 609.36 1098.84 609.16 1098.44 608.76C1098.06 608.387 1097.88 607.907 1097.88 607.32V589.08C1097.9 586.973 1098.4 585.08 1099.36 583.4C1100.32 581.72 1101.62 580.4 1103.28 579.44C1104.93 578.453 1106.8 577.96 1108.88 577.96C1110.98 577.96 1112.86 578.453 1114.52 579.44C1116.17 580.4 1117.48 581.72 1118.44 583.4C1119.42 585.08 1119.92 586.973 1119.92 589.08C1119.92 591.187 1119.46 593.08 1118.56 594.76C1117.68 596.413 1116.46 597.733 1114.92 598.72C1113.37 599.68 1111.62 600.16 1109.68 600.16C1108.1 600.16 1106.65 599.84 1105.32 599.2C1104.01 598.533 1102.89 597.64 1101.96 596.52V607.32C1101.96 607.907 1101.77 608.387 1101.4 608.76C1101.02 609.16 1100.53 609.36 1099.92 609.36ZM1108.88 596.56C1110.24 596.56 1111.45 596.24 1112.52 595.6C1113.58 594.933 1114.42 594.04 1115.04 592.92C1115.68 591.773 1116 590.493 1116 589.08C1116 587.64 1115.68 586.36 1115.04 585.24C1114.42 584.093 1113.58 583.2 1112.52 582.56C1111.45 581.893 1110.24 581.56 1108.88 581.56C1107.54 581.56 1106.33 581.893 1105.24 582.56C1104.17 583.2 1103.33 584.093 1102.72 585.24C1102.1 586.36 1101.8 587.64 1101.8 589.08C1101.8 590.493 1102.1 591.773 1102.72 592.92C1103.33 594.04 1104.17 594.933 1105.24 595.6C1106.33 596.24 1107.54 596.56 1108.88 596.56ZM1136.28 600.16C1134.07 600.16 1132.1 599.693 1130.36 598.76C1128.66 597.8 1127.31 596.493 1126.32 594.84C1125.36 593.16 1124.88 591.24 1124.88 589.08C1124.88 586.893 1125.34 584.973 1126.24 583.32C1127.18 581.64 1128.46 580.333 1130.08 579.4C1131.71 578.44 1133.58 577.96 1135.68 577.96C1137.76 577.96 1139.55 578.427 1141.04 579.36C1142.54 580.267 1143.67 581.533 1144.44 583.16C1145.24 584.76 1145.64 586.613 1145.64 588.72C1145.64 589.227 1145.47 589.653 1145.12 590C1144.78 590.32 1144.34 590.48 1143.8 590.48H1127.68V587.28H1143.68L1142.04 588.4C1142.02 587.067 1141.75 585.88 1141.24 584.84C1140.74 583.773 1140.02 582.933 1139.08 582.32C1138.15 581.707 1137.02 581.4 1135.68 581.4C1134.16 581.4 1132.86 581.733 1131.76 582.4C1130.7 583.067 1129.88 583.987 1129.32 585.16C1128.76 586.307 1128.48 587.613 1128.48 589.08C1128.48 590.547 1128.82 591.853 1129.48 593C1130.15 594.147 1131.07 595.053 1132.24 595.72C1133.42 596.387 1134.76 596.72 1136.28 596.72C1137.11 596.72 1137.95 596.573 1138.8 596.28C1139.68 595.96 1140.39 595.6 1140.92 595.2C1141.32 594.907 1141.75 594.76 1142.2 594.76C1142.68 594.733 1143.1 594.867 1143.44 595.16C1143.9 595.56 1144.14 596 1144.16 596.48C1144.19 596.96 1143.98 597.373 1143.52 597.72C1142.62 598.44 1141.48 599.027 1140.12 599.48C1138.79 599.933 1137.51 600.16 1136.28 600.16ZM1152.81 586.32C1152.81 584.72 1153.19 583.293 1153.97 582.04C1154.77 580.76 1155.83 579.747 1157.17 579C1158.5 578.253 1159.97 577.88 1161.57 577.88C1163.17 577.88 1164.35 578.147 1165.13 578.68C1165.93 579.187 1166.23 579.8 1166.05 580.52C1165.97 580.893 1165.81 581.187 1165.57 581.4C1165.35 581.587 1165.1 581.707 1164.81 581.76C1164.51 581.813 1164.19 581.8 1163.85 581.72C1162.14 581.373 1160.61 581.347 1159.25 581.64C1157.89 581.933 1156.81 582.48 1156.01 583.28C1155.23 584.08 1154.85 585.093 1154.85 586.32H1152.81ZM1152.85 600C1152.21 600 1151.71 599.84 1151.37 599.52C1151.02 599.173 1150.85 598.667 1150.85 598V580.12C1150.85 579.48 1151.02 578.987 1151.37 578.64C1151.71 578.293 1152.21 578.12 1152.85 578.12C1153.51 578.12 1154.01 578.293 1154.33 578.64C1154.67 578.96 1154.85 579.453 1154.85 580.12V598C1154.85 598.64 1154.67 599.133 1154.33 599.48C1154.01 599.827 1153.51 600 1152.85 600Z" fill="#1A1A1A"/>
<path d="M328.002 501.96C323.906 501.96 320.002 501.32 316.29 500.04C312.578 498.76 309.346 496.968 306.594 494.664C303.842 492.36 301.826 489.704 300.546 486.696C299.906 485.352 299.906 484.104 300.546 482.952C301.25 481.8 302.402 481.064 304.002 480.744C305.154 480.488 306.274 480.68 307.362 481.32C308.514 481.896 309.378 482.792 309.954 484.008C310.722 485.608 311.97 487.08 313.698 488.424C315.49 489.768 317.634 490.856 320.13 491.688C322.626 492.52 325.25 492.936 328.002 492.936C331.074 492.936 333.89 492.456 336.45 491.496C339.074 490.536 341.186 489.16 342.786 487.368C344.386 485.512 345.186 483.24 345.186 480.552C345.186 477.16 343.842 474.12 341.154 471.432C338.53 468.744 334.178 467.08 328.098 466.44C320.162 465.672 313.922 463.336 309.378 459.432C304.834 455.528 302.562 450.696 302.562 444.936C302.562 440.712 303.746 437.128 306.114 434.184C308.482 431.24 311.682 429 315.714 427.464C319.81 425.928 324.354 425.16 329.346 425.16C333.25 425.16 336.642 425.704 339.522 426.792C342.466 427.88 345.026 429.384 347.202 431.304C349.378 433.224 351.266 435.496 352.866 438.12C353.762 439.528 354.114 440.872 353.922 442.152C353.794 443.368 353.186 444.328 352.098 445.032C350.882 445.8 349.57 445.96 348.162 445.512C346.754 445.064 345.698 444.232 344.994 443.016C343.97 441.16 342.722 439.592 341.25 438.312C339.778 437.032 338.05 436.04 336.066 435.336C334.082 434.568 331.746 434.184 329.058 434.184C324.322 434.12 320.354 435.016 317.154 436.872C313.954 438.664 312.354 441.448 312.354 445.224C312.354 447.144 312.834 449 313.794 450.792C314.818 452.52 316.642 454.024 319.266 455.304C321.954 456.584 325.794 457.48 330.786 457.992C338.402 458.76 344.322 461.096 348.546 465C352.834 468.84 354.978 473.928 354.978 480.264C354.978 483.912 354.21 487.08 352.674 489.768C351.202 492.456 349.186 494.728 346.626 496.584C344.13 498.376 341.25 499.72 337.986 500.616C334.786 501.512 331.458 501.96 328.002 501.96ZM394 501.384C388.688 501.384 383.952 500.264 379.792 498.024C375.696 495.72 372.464 492.584 370.096 488.616C367.792 484.584 366.64 479.976 366.64 474.792C366.64 469.544 367.728 464.936 369.904 460.968C372.144 456.936 375.216 453.8 379.12 451.56C383.024 449.256 387.504 448.104 392.56 448.104C397.552 448.104 401.84 449.224 405.424 451.464C409.008 453.64 411.728 456.68 413.583 460.584C415.504 464.424 416.464 468.872 416.464 473.928C416.464 475.144 416.048 476.168 415.216 477C414.384 477.768 413.328 478.152 412.048 478.152H373.359V470.472H411.76L407.824 473.16C407.76 469.96 407.12 467.112 405.904 464.616C404.688 462.056 402.96 460.04 400.72 458.568C398.48 457.096 395.76 456.36 392.56 456.36C388.912 456.36 385.776 457.16 383.152 458.76C380.592 460.36 378.64 462.568 377.296 465.384C375.952 468.136 375.28 471.272 375.28 474.792C375.28 478.312 376.08 481.448 377.68 484.2C379.28 486.952 381.488 489.128 384.304 490.728C387.12 492.328 390.352 493.128 394 493.128C395.984 493.128 398 492.776 400.048 492.072C402.16 491.304 403.856 490.44 405.136 489.48C406.096 488.776 407.12 488.424 408.208 488.424C409.36 488.36 410.352 488.68 411.184 489.384C412.272 490.344 412.848 491.4 412.912 492.552C412.976 493.704 412.464 494.696 411.375 495.528C409.2 497.256 406.48 498.664 403.216 499.752C400.016 500.84 396.944 501.384 394 501.384ZM455.353 501.384C450.361 501.384 445.881 500.232 441.913 497.928C437.945 495.56 434.809 492.36 432.505 488.328C430.201 484.296 429.017 479.752 428.953 474.696V430.92C428.953 429.448 429.401 428.264 430.297 427.368C431.257 426.472 432.441 426.024 433.849 426.024C435.321 426.024 436.505 426.472 437.401 427.368C438.297 428.264 438.745 429.448 438.745 430.92V456.84C440.985 454.152 443.673 452.04 446.809 450.504C450.009 448.904 453.497 448.104 457.273 448.104C461.945 448.104 466.137 449.288 469.849 451.656C473.561 453.96 476.473 457.128 478.585 461.16C480.761 465.128 481.849 469.64 481.849 474.696C481.849 479.752 480.665 484.296 478.297 488.328C475.993 492.36 472.857 495.56 468.889 497.928C464.921 500.232 460.409 501.384 455.353 501.384ZM455.353 492.744C458.617 492.744 461.529 491.976 464.089 490.44C466.649 488.84 468.665 486.664 470.137 483.912C471.673 481.16 472.441 478.088 472.441 474.696C472.441 471.24 471.673 468.168 470.137 465.48C468.665 462.792 466.649 460.68 464.089 459.144C461.529 457.544 458.617 456.744 455.353 456.744C452.153 456.744 449.241 457.544 446.617 459.144C444.057 460.68 442.041 462.792 440.569 465.48C439.097 468.168 438.361 471.24 438.361 474.696C438.361 478.088 439.097 481.16 440.569 483.912C442.041 486.664 444.057 488.84 446.617 490.44C449.241 491.976 452.153 492.744 455.353 492.744ZM518.341 501.384C513.669 501.384 509.477 500.232 505.765 497.928C502.053 495.56 499.109 492.392 496.933 488.424C494.821 484.392 493.765 479.848 493.765 474.792C493.765 469.736 494.917 465.192 497.221 461.16C499.589 457.128 502.757 453.96 506.725 451.656C510.757 449.288 515.269 448.104 520.261 448.104C525.253 448.104 529.733 449.288 533.701 451.656C537.669 453.96 540.805 457.128 543.109 461.16C545.477 465.192 546.661 469.736 546.661 474.792H542.917C542.917 479.848 541.829 484.392 539.653 488.424C537.541 492.392 534.629 495.56 530.917 497.928C527.205 500.232 523.013 501.384 518.341 501.384ZM520.261 492.744C523.525 492.744 526.437 491.976 528.997 490.44C531.557 488.84 533.573 486.696 535.045 484.008C536.517 481.256 537.253 478.184 537.253 474.792C537.253 471.336 536.517 468.264 535.045 465.576C533.573 462.824 531.557 460.68 528.997 459.144C526.437 457.544 523.525 456.744 520.261 456.744C517.061 456.744 514.149 457.544 511.525 459.144C508.965 460.68 506.917 462.824 505.381 465.576C503.909 468.264 503.173 471.336 503.173 474.792C503.173 478.184 503.909 481.256 505.381 484.008C506.917 486.696 508.965 488.84 511.525 490.44C514.149 491.976 517.061 492.744 520.261 492.744ZM541.765 501.096C540.357 501.096 539.173 500.648 538.213 499.752C537.317 498.792 536.869 497.608 536.869 496.2V481.512L538.693 471.336L546.661 474.792V496.2C546.661 497.608 546.181 498.792 545.221 499.752C544.325 500.648 543.173 501.096 541.765 501.096ZM580.338 501.384C575.858 501.384 571.698 500.712 567.858 499.368C564.082 497.96 561.138 496.2 559.026 494.088C558.066 493.064 557.65 491.912 557.778 490.632C557.97 489.288 558.61 488.2 559.698 487.368C560.978 486.344 562.226 485.928 563.442 486.12C564.722 486.248 565.81 486.792 566.706 487.752C567.794 488.968 569.522 490.12 571.89 491.208C574.322 492.232 577.01 492.744 579.954 492.744C583.666 492.744 586.482 492.136 588.402 490.92C590.386 489.704 591.41 488.136 591.474 486.216C591.538 484.296 590.61 482.632 588.69 481.224C586.834 479.816 583.41 478.664 578.418 477.768C571.954 476.488 567.25 474.568 564.306 472.008C561.426 469.448 559.986 466.312 559.986 462.6C559.986 459.336 560.946 456.648 562.866 454.536C564.786 452.36 567.25 450.76 570.258 449.736C573.266 448.648 576.402 448.104 579.666 448.104C583.89 448.104 587.634 448.776 590.898 450.12C594.162 451.464 596.754 453.32 598.674 455.688C599.57 456.712 599.986 457.8 599.922 458.952C599.858 460.04 599.314 460.968 598.29 461.736C597.266 462.44 596.05 462.664 594.642 462.408C593.234 462.152 592.05 461.576 591.09 460.68C589.49 459.144 587.762 458.088 585.906 457.512C584.05 456.936 581.906 456.648 579.474 456.648C576.658 456.648 574.258 457.128 572.274 458.088C570.354 459.048 569.394 460.456 569.394 462.312C569.394 463.464 569.682 464.52 570.258 465.48C570.898 466.376 572.114 467.208 573.906 467.976C575.698 468.68 578.322 469.384 581.778 470.088C586.578 471.048 590.354 472.264 593.106 473.736C595.922 475.208 597.938 476.936 599.154 478.92C600.37 480.84 600.978 483.08 600.978 485.64C600.978 488.584 600.178 491.24 598.578 493.608C597.042 495.976 594.738 497.864 591.666 499.272C588.658 500.68 584.882 501.384 580.338 501.384ZM632.463 501C629.263 501 626.383 500.2 623.823 498.6C621.263 496.936 619.247 494.696 617.775 491.88C616.303 489.064 615.567 485.896 615.567 482.376V436.584C615.567 435.176 616.015 434.024 616.911 433.128C617.807 432.232 618.959 431.784 620.367 431.784C621.775 431.784 622.927 432.232 623.823 433.128C624.719 434.024 625.167 435.176 625.167 436.584V482.376C625.167 484.936 625.871 487.08 627.279 488.808C628.687 490.536 630.415 491.4 632.463 491.4H635.727C636.879 491.4 637.839 491.848 638.607 492.744C639.439 493.64 639.855 494.792 639.855 496.2C639.855 497.608 639.311 498.76 638.223 499.656C637.199 500.552 635.855 501 634.191 501H632.463ZM611.151 458.664C609.807 458.664 608.719 458.28 607.887 457.512C607.055 456.744 606.639 455.784 606.639 454.632C606.639 453.352 607.055 452.328 607.887 451.56C608.719 450.792 609.807 450.408 611.151 450.408H633.327C634.671 450.408 635.759 450.792 636.591 451.56C637.423 452.328 637.839 453.352 637.839 454.632C637.839 455.784 637.423 456.744 636.591 457.512C635.759 458.28 634.671 458.664 633.327 458.664H611.151ZM657.746 501C656.338 501 655.154 500.552 654.194 499.656C653.298 498.696 652.85 497.512 652.85 496.104V453.384C652.85 451.912 653.298 450.728 654.194 449.832C655.154 448.936 656.338 448.488 657.746 448.488C659.218 448.488 660.402 448.936 661.298 449.832C662.194 450.728 662.642 451.912 662.642 453.384V496.104C662.642 497.512 662.194 498.696 661.298 499.656C660.402 500.552 659.218 501 657.746 501ZM657.746 439.944C656.018 439.944 654.514 439.336 653.234 438.12C652.018 436.84 651.41 435.336 651.41 433.608C651.41 431.88 652.018 430.408 653.234 429.192C654.514 427.912 656.018 427.272 657.746 427.272C659.474 427.272 660.946 427.912 662.162 429.192C663.442 430.408 664.082 431.88 664.082 433.608C664.082 435.336 663.442 436.84 662.162 438.12C660.946 439.336 659.474 439.944 657.746 439.944ZM702.747 501.384C698.075 501.384 693.883 500.232 690.171 497.928C686.459 495.56 683.515 492.392 681.339 488.424C679.227 484.392 678.171 479.848 678.171 474.792C678.171 469.736 679.323 465.192 681.627 461.16C683.995 457.128 687.163 453.96 691.131 451.656C695.163 449.288 699.675 448.104 704.667 448.104C709.659 448.104 714.139 449.288 718.107 451.656C722.075 453.96 725.211 457.128 727.515 461.16C729.883 465.192 731.067 469.736 731.067 474.792H727.323C727.323 479.848 726.235 484.392 724.059 488.424C721.947 492.392 719.035 495.56 715.323 497.928C711.611 500.232 707.419 501.384 702.747 501.384ZM704.667 492.744C707.931 492.744 710.843 491.976 713.403 490.44C715.963 488.84 717.979 486.696 719.451 484.008C720.923 481.256 721.659 478.184 721.659 474.792C721.659 471.336 720.923 468.264 719.451 465.576C717.979 462.824 715.963 460.68 713.403 459.144C710.843 457.544 707.931 456.744 704.667 456.744C701.467 456.744 698.555 457.544 695.931 459.144C693.371 460.68 691.323 462.824 689.787 465.576C688.315 468.264 687.579 471.336 687.579 474.792C687.579 478.184 688.315 481.256 689.787 484.008C691.323 486.696 693.371 488.84 695.931 490.44C698.555 491.976 701.467 492.744 704.667 492.744ZM726.171 501.096C724.763 501.096 723.579 500.648 722.619 499.752C721.723 498.792 721.275 497.608 721.275 496.2V481.512L723.099 471.336L731.067 474.792V496.2C731.067 497.608 730.587 498.792 729.627 499.752C728.731 500.648 727.579 501.096 726.171 501.096ZM789.992 501.096C788.584 501.096 787.4 500.648 786.44 499.752C785.544 498.792 785.096 497.608 785.096 496.2V472.584C785.096 468.936 784.424 465.96 783.08 463.656C781.736 461.352 779.912 459.656 777.608 458.568C775.368 457.416 772.776 456.84 769.832 456.84C767.144 456.84 764.712 457.384 762.536 458.472C760.36 459.56 758.632 461.032 757.352 462.888C756.072 464.68 755.432 466.76 755.432 469.128H749.384C749.384 465.096 750.344 461.512 752.264 458.376C754.248 455.176 756.936 452.648 760.328 450.792C763.72 448.936 767.528 448.008 771.752 448.008C776.168 448.008 780.104 448.968 783.56 450.888C787.08 452.744 789.832 455.496 791.816 459.144C793.864 462.792 794.888 467.272 794.888 472.584V496.2C794.888 497.608 794.408 498.792 793.448 499.752C792.552 500.648 791.4 501.096 789.992 501.096ZM750.536 501.096C749.128 501.096 747.944 500.648 746.984 499.752C746.088 498.792 745.64 497.608 745.64 496.2V453.384C745.64 451.912 746.088 450.728 746.984 449.832C747.944 448.936 749.128 448.488 750.536 448.488C752.008 448.488 753.192 448.936 754.088 449.832C754.984 450.728 755.432 451.912 755.432 453.384V496.2C755.432 497.608 754.984 498.792 754.088 499.752C753.192 500.648 752.008 501.096 750.536 501.096ZM863.971 501.96C859.875 501.96 855.971 501.32 852.259 500.04C848.547 498.76 845.315 496.968 842.562 494.664C839.811 492.36 837.795 489.704 836.515 486.696C835.875 485.352 835.875 484.104 836.515 482.952C837.219 481.8 838.371 481.064 839.971 480.744C841.123 480.488 842.243 480.68 843.331 481.32C844.483 481.896 845.347 482.792 845.923 484.008C846.691 485.608 847.939 487.08 849.667 488.424C851.459 489.768 853.603 490.856 856.099 491.688C858.595 492.52 861.219 492.936 863.971 492.936C867.043 492.936 869.859 492.456 872.419 491.496C875.043 490.536 877.155 489.16 878.755 487.368C880.355 485.512 881.155 483.24 881.155 480.552C881.155 477.16 879.811 474.12 877.123 471.432C874.499 468.744 870.147 467.08 864.067 466.44C856.131 465.672 849.891 463.336 845.347 459.432C840.803 455.528 838.531 450.696 838.531 444.936C838.531 440.712 839.715 437.128 842.083 434.184C844.451 431.24 847.651 429 851.683 427.464C855.779 425.928 860.323 425.16 865.315 425.16C869.219 425.16 872.611 425.704 875.491 426.792C878.435 427.88 880.995 429.384 883.171 431.304C885.347 433.224 887.235 435.496 888.835 438.12C889.731 439.528 890.083 440.872 889.891 442.152C889.763 443.368 889.155 444.328 888.067 445.032C886.851 445.8 885.539 445.96 884.131 445.512C882.723 445.064 881.667 444.232 880.963 443.016C879.939 441.16 878.691 439.592 877.219 438.312C875.747 437.032 874.019 436.04 872.035 435.336C870.051 434.568 867.715 434.184 865.027 434.184C860.291 434.12 856.323 435.016 853.123 436.872C849.923 438.664 848.323 441.448 848.323 445.224C848.323 447.144 848.803 449 849.763 450.792C850.787 452.52 852.611 454.024 855.234 455.304C857.923 456.584 861.763 457.48 866.755 457.992C874.371 458.76 880.291 461.096 884.515 465C888.803 468.84 890.947 473.928 890.947 480.264C890.947 483.912 890.179 487.08 888.643 489.768C887.171 492.456 885.155 494.728 882.595 496.584C880.099 498.376 877.219 499.72 873.955 500.616C870.755 501.512 867.427 501.96 863.971 501.96ZM929.104 501.384C923.984 501.384 919.408 500.232 915.376 497.928C911.408 495.56 908.272 492.392 905.968 488.424C903.728 484.392 902.608 479.848 902.608 474.792C902.608 469.608 903.728 465 905.968 460.968C908.208 456.936 911.28 453.8 915.184 451.56C919.088 449.256 923.568 448.104 928.624 448.104C932.4 448.104 935.856 448.84 938.992 450.312C942.128 451.72 944.944 453.864 947.44 456.744C948.336 457.768 948.656 458.824 948.4 459.912C948.144 461 947.44 461.96 946.288 462.792C945.392 463.432 944.4 463.656 943.312 463.464C942.224 463.208 941.232 462.632 940.336 461.736C937.2 458.408 933.296 456.744 928.624 456.744C925.36 456.744 922.48 457.512 919.984 459.048C917.488 460.52 915.536 462.6 914.128 465.288C912.72 467.976 912.016 471.144 912.016 474.792C912.016 478.248 912.72 481.32 914.128 484.008C915.6 486.696 917.616 488.84 920.176 490.44C922.736 491.976 925.712 492.744 929.104 492.744C931.344 492.744 933.296 492.488 934.96 491.976C936.688 491.4 938.256 490.536 939.664 489.384C940.688 488.552 941.744 488.104 942.832 488.04C943.92 487.912 944.88 488.2 945.712 488.904C946.8 489.8 947.408 490.824 947.536 491.976C947.664 493.064 947.28 494.056 946.384 494.952C941.776 499.24 936.016 501.384 929.104 501.384ZM967.849 481.896C966.441 481.896 965.257 481.448 964.297 480.552C963.401 479.592 962.953 478.408 962.953 477V430.92C962.953 429.448 963.401 428.264 964.297 427.368C965.257 426.472 966.441 426.024 967.849 426.024C969.321 426.024 970.505 426.472 971.401 427.368C972.297 428.264 972.745 429.448 972.745 430.92V477C972.745 478.408 972.297 479.592 971.401 480.552C970.505 481.448 969.321 481.896 967.849 481.896ZM1007.3 501.096C1005.9 501.096 1004.71 500.648 1003.75 499.752C1002.86 498.792 1002.41 497.608 1002.41 496.2V472.584C1002.41 468.936 1001.74 465.96 1000.39 463.656C999.049 461.352 997.225 459.656 994.921 458.568C992.681 457.416 990.089 456.84 987.145 456.84C984.457 456.84 982.025 457.384 979.849 458.472C977.673 459.56 975.945 461.032 974.665 462.888C973.385 464.68 972.745 466.76 972.745 469.128H966.697C966.697 465.096 967.657 461.512 969.577 458.376C971.561 455.176 974.249 452.648 977.641 450.792C981.033 448.936 984.841 448.008 989.065 448.008C993.481 448.008 997.417 448.968 1000.87 450.888C1004.39 452.744 1007.14 455.496 1009.13 459.144C1011.18 462.792 1012.2 467.272 1012.2 472.584V496.2C1012.2 497.608 1011.72 498.792 1010.76 499.752C1009.86 500.648 1008.71 501.096 1007.3 501.096ZM967.849 501.096C966.441 501.096 965.257 500.648 964.297 499.752C963.401 498.792 962.953 497.608 962.953 496.2V453.384C962.953 451.912 963.401 450.728 964.297 449.832C965.257 448.936 966.441 448.488 967.849 448.488C969.321 448.488 970.505 448.936 971.401 449.832C972.297 450.728 972.745 451.912 972.745 453.384V496.2C972.745 497.608 972.297 498.792 971.401 499.752C970.505 500.648 969.321 501.096 967.849 501.096ZM1053.16 501.384C1047.84 501.384 1043.11 500.264 1038.95 498.024C1034.85 495.72 1031.62 492.584 1029.25 488.616C1026.95 484.584 1025.8 479.976 1025.8 474.792C1025.8 469.544 1026.88 464.936 1029.06 460.968C1031.3 456.936 1034.37 453.8 1038.28 451.56C1042.18 449.256 1046.66 448.104 1051.72 448.104C1056.71 448.104 1061 449.224 1064.58 451.464C1068.16 453.64 1070.88 456.68 1072.74 460.584C1074.66 464.424 1075.62 468.872 1075.62 473.928C1075.62 475.144 1075.2 476.168 1074.37 477C1073.54 477.768 1072.48 478.152 1071.2 478.152H1032.52V470.472H1070.92L1066.98 473.16C1066.92 469.96 1066.28 467.112 1065.06 464.616C1063.84 462.056 1062.12 460.04 1059.88 458.568C1057.64 457.096 1054.92 456.36 1051.72 456.36C1048.07 456.36 1044.93 457.16 1042.31 458.76C1039.75 460.36 1037.8 462.568 1036.45 465.384C1035.11 468.136 1034.44 471.272 1034.44 474.792C1034.44 478.312 1035.24 481.448 1036.84 484.2C1038.44 486.952 1040.64 489.128 1043.46 490.728C1046.28 492.328 1049.51 493.128 1053.16 493.128C1055.14 493.128 1057.16 492.776 1059.2 492.072C1061.32 491.304 1063.01 490.44 1064.29 489.48C1065.25 488.776 1066.28 488.424 1067.36 488.424C1068.52 488.36 1069.51 488.68 1070.34 489.384C1071.43 490.344 1072 491.4 1072.07 492.552C1072.13 493.704 1071.62 494.696 1070.53 495.528C1068.36 497.256 1065.64 498.664 1062.37 499.752C1059.17 500.84 1056.1 501.384 1053.16 501.384ZM1092.81 468.168C1092.81 464.328 1093.74 460.904 1095.6 457.896C1097.52 454.824 1100.08 452.392 1103.28 450.6C1106.48 448.808 1110 447.912 1113.84 447.912C1117.68 447.912 1120.52 448.552 1122.38 449.832C1124.3 451.048 1125.04 452.52 1124.59 454.248C1124.4 455.144 1124.01 455.848 1123.44 456.36C1122.92 456.808 1122.32 457.096 1121.61 457.224C1120.91 457.352 1120.14 457.32 1119.31 457.128C1115.21 456.296 1111.53 456.232 1108.27 456.936C1105 457.64 1102.41 458.952 1100.49 460.872C1098.64 462.792 1097.71 465.224 1097.71 468.168H1092.81ZM1092.91 501C1091.37 501 1090.19 500.616 1089.36 499.848C1088.52 499.016 1088.11 497.8 1088.11 496.2V453.288C1088.11 451.752 1088.52 450.568 1089.36 449.736C1090.19 448.904 1091.37 448.488 1092.91 448.488C1094.51 448.488 1095.69 448.904 1096.46 449.736C1097.29 450.504 1097.71 451.688 1097.71 453.288V496.2C1097.71 497.736 1097.29 498.92 1096.46 499.752C1095.69 500.584 1094.51 501 1092.91 501ZM1161.2 501.384C1156.2 501.384 1151.72 500.232 1147.76 497.928C1143.79 495.56 1140.65 492.36 1138.35 488.328C1136.04 484.296 1134.86 479.752 1134.8 474.696V430.92C1134.8 429.448 1135.24 428.264 1136.14 427.368C1137.1 426.472 1138.28 426.024 1139.69 426.024C1141.16 426.024 1142.35 426.472 1143.24 427.368C1144.14 428.264 1144.59 429.448 1144.59 430.92V456.84C1146.83 454.152 1149.52 452.04 1152.65 450.504C1155.85 448.904 1159.34 448.104 1163.12 448.104C1167.79 448.104 1171.98 449.288 1175.69 451.656C1179.4 453.96 1182.32 457.128 1184.43 461.16C1186.6 465.128 1187.69 469.64 1187.69 474.696C1187.69 479.752 1186.51 484.296 1184.14 488.328C1181.84 492.36 1178.7 495.56 1174.73 497.928C1170.76 500.232 1166.25 501.384 1161.2 501.384ZM1161.2 492.744C1164.46 492.744 1167.37 491.976 1169.93 490.44C1172.49 488.84 1174.51 486.664 1175.98 483.912C1177.52 481.16 1178.28 478.088 1178.28 474.696C1178.28 471.24 1177.52 468.168 1175.98 465.48C1174.51 462.792 1172.49 460.68 1169.93 459.144C1167.37 457.544 1164.46 456.744 1161.2 456.744C1158 456.744 1155.08 457.544 1152.46 459.144C1149.9 460.68 1147.88 462.792 1146.41 465.48C1144.94 468.168 1144.2 471.24 1144.2 474.696C1144.2 478.088 1144.94 481.16 1146.41 483.912C1147.88 486.664 1149.9 488.84 1152.46 490.44C1155.08 491.976 1158 492.744 1161.2 492.744ZM1226.97 501.384C1221.66 501.384 1216.92 500.264 1212.76 498.024C1208.66 495.72 1205.43 492.584 1203.06 488.616C1200.76 484.584 1199.61 479.976 1199.61 474.792C1199.61 469.544 1200.7 464.936 1202.87 460.968C1205.11 456.936 1208.18 453.8 1212.09 451.56C1215.99 449.256 1220.47 448.104 1225.53 448.104C1230.52 448.104 1234.81 449.224 1238.39 451.464C1241.98 453.64 1244.7 456.68 1246.55 460.584C1248.47 464.424 1249.43 468.872 1249.43 473.928C1249.43 475.144 1249.02 476.168 1248.18 477C1247.35 477.768 1246.3 478.152 1245.02 478.152H1206.33V470.472H1244.73L1240.79 473.16C1240.73 469.96 1240.09 467.112 1238.87 464.616C1237.66 462.056 1235.93 460.04 1233.69 458.568C1231.45 457.096 1228.73 456.36 1225.53 456.36C1221.88 456.36 1218.74 457.16 1216.12 458.76C1213.56 460.36 1211.61 462.568 1210.26 465.384C1208.92 468.136 1208.25 471.272 1208.25 474.792C1208.25 478.312 1209.05 481.448 1210.65 484.2C1212.25 486.952 1214.46 489.128 1217.27 490.728C1220.09 492.328 1223.32 493.128 1226.97 493.128C1228.95 493.128 1230.97 492.776 1233.02 492.072C1235.13 491.304 1236.82 490.44 1238.1 489.48C1239.06 488.776 1240.09 488.424 1241.18 488.424C1242.33 488.36 1243.32 488.68 1244.15 489.384C1245.24 490.344 1245.82 491.4 1245.88 492.552C1245.94 493.704 1245.43 494.696 1244.34 495.528C1242.17 497.256 1239.45 498.664 1236.18 499.752C1232.98 500.84 1229.91 501.384 1226.97 501.384ZM1281.03 501.384C1276.55 501.384 1272.39 500.712 1268.55 499.368C1264.77 497.96 1261.83 496.2 1259.71 494.088C1258.75 493.064 1258.34 491.912 1258.47 490.632C1258.66 489.288 1259.3 488.2 1260.39 487.368C1261.67 486.344 1262.91 485.928 1264.13 486.12C1265.41 486.248 1266.5 486.792 1267.39 487.752C1268.48 488.968 1270.21 490.12 1272.58 491.208C1275.01 492.232 1277.7 492.744 1280.64 492.744C1284.35 492.744 1287.17 492.136 1289.09 490.92C1291.07 489.704 1292.1 488.136 1292.16 486.216C1292.23 484.296 1291.3 482.632 1289.38 481.224C1287.52 479.816 1284.1 478.664 1279.11 477.768C1272.64 476.488 1267.94 474.568 1264.99 472.008C1262.11 469.448 1260.67 466.312 1260.67 462.6C1260.67 459.336 1261.63 456.648 1263.55 454.536C1265.47 452.36 1267.94 450.76 1270.95 449.736C1273.95 448.648 1277.09 448.104 1280.35 448.104C1284.58 448.104 1288.32 448.776 1291.59 450.12C1294.85 451.464 1297.44 453.32 1299.36 455.688C1300.26 456.712 1300.67 457.8 1300.61 458.952C1300.55 460.04 1300 460.968 1298.98 461.736C1297.95 462.44 1296.74 462.664 1295.33 462.408C1293.92 462.152 1292.74 461.576 1291.78 460.68C1290.18 459.144 1288.45 458.088 1286.59 457.512C1284.74 456.936 1282.59 456.648 1280.16 456.648C1277.35 456.648 1274.95 457.128 1272.96 458.088C1271.04 459.048 1270.08 460.456 1270.08 462.312C1270.08 463.464 1270.37 464.52 1270.95 465.48C1271.59 466.376 1272.8 467.208 1274.59 467.976C1276.39 468.68 1279.01 469.384 1282.47 470.088C1287.27 471.048 1291.04 472.264 1293.79 473.736C1296.61 475.208 1298.63 476.936 1299.84 478.92C1301.06 480.84 1301.67 483.08 1301.67 485.64C1301.67 488.584 1300.87 491.24 1299.27 493.608C1297.73 495.976 1295.43 497.864 1292.35 499.272C1289.35 500.68 1285.57 501.384 1281.03 501.384Z" fill="black"/>
<g clip-path="url(#clip0_11_2)">
<path d="M798.655 291C798.101 291 797.681 291.004 797.528 291.021C797.366 291.038 796.849 291.087 796.385 291.124C785.665 292.091 775.625 297.874 769.265 306.762C765.724 311.704 763.459 317.31 762.604 323.248C762.301 325.321 762.264 325.933 762.264 328.743C762.264 331.554 762.302 332.166 762.604 334.239C764.654 348.409 774.739 360.314 788.417 364.725C790.867 365.514 793.449 366.053 796.385 366.377C797.528 366.503 802.471 366.503 803.614 366.377C808.683 365.817 812.977 364.563 817.211 362.402C817.86 362.069 817.986 361.981 817.897 361.907C817.838 361.863 815.071 358.153 811.752 353.668L805.717 345.517L798.155 334.327C793.995 328.175 790.571 323.145 790.542 323.145C790.512 323.137 790.483 328.109 790.468 334.18C790.447 344.809 790.439 345.237 790.306 345.488C790.114 345.849 789.966 345.997 789.657 346.159C789.421 346.276 789.214 346.299 788.1 346.299H786.823L786.484 346.085C786.274 345.953 786.103 345.767 785.99 345.547L785.835 345.214L785.852 330.425L785.873 315.628L786.101 315.341C786.219 315.186 786.47 314.987 786.647 314.891C786.949 314.743 787.068 314.728 788.344 314.728C789.849 314.728 790.1 314.787 790.491 315.215C790.602 315.333 794.696 321.5 799.594 328.928C804.554 336.446 809.517 343.963 814.482 351.477L820.458 360.528L820.76 360.329C823.438 358.588 826.271 356.109 828.514 353.528C833.287 348.047 836.364 341.364 837.396 334.239C837.698 332.166 837.735 331.553 837.735 328.743C837.735 325.933 837.697 325.321 837.396 323.248C835.345 309.078 825.26 297.173 811.583 292.762C809.17 291.98 806.603 291.441 803.726 291.117C803.194 291.061 800.318 291.001 798.655 291ZM811.449 313.695C812.541 313.695 812.733 313.712 812.976 313.843C813.331 314.019 813.618 314.359 813.722 314.713C813.78 314.905 813.795 319.006 813.78 328.249L813.759 341.511L811.421 337.926L809.075 334.342V324.7C809.075 318.467 809.104 314.963 809.148 314.794C809.266 314.381 809.524 314.056 809.879 313.864C810.181 313.709 810.291 313.695 811.449 313.695Z" fill="#1A1A1A"/>
</g>
<g clip-path="url(#clip1_11_2)">
<path d="M400 291H475.472V366.472H400V291ZM469.289 348.472C468.739 345.028 466.497 342.135 459.846 339.437C457.531 338.352 454.959 337.597 454.195 335.852C453.909 334.814 453.865 334.248 454.05 333.635C454.522 331.604 456.928 330.994 458.814 331.56C460.041 331.937 461.173 332.881 461.884 334.39C465.135 332.264 465.135 332.264 467.403 330.852C466.553 329.531 466.132 328.962 465.56 328.399C463.579 326.182 460.94 325.05 456.648 325.148L454.431 325.428C452.305 325.947 450.28 327.079 449.053 328.588C445.469 332.648 446.503 339.723 450.843 342.648C455.135 345.855 461.412 346.56 462.214 349.582C462.969 353.261 459.478 354.44 456.031 354.016C453.481 353.45 452.069 352.173 450.513 349.814L444.758 353.119C445.418 354.629 446.173 355.286 447.305 356.607C452.777 362.129 466.456 361.846 468.912 353.45C469.003 353.167 469.667 351.233 469.145 348.261L469.289 348.472ZM441.041 325.689H433.972C433.972 331.783 433.943 337.84 433.943 343.943C433.943 347.818 434.142 351.374 433.509 352.469C432.472 354.635 429.799 354.358 428.585 353.978C427.34 353.362 426.708 352.513 425.975 351.289C425.777 350.959 425.629 350.673 425.575 350.673L419.836 354.211C420.796 356.192 422.195 357.896 424 358.981C426.689 360.585 430.302 361.104 434.085 360.255C436.547 359.544 438.67 358.082 439.78 355.818C441.384 352.893 441.044 349.308 441.028 345.296C441.066 338.836 441.028 332.374 441.028 325.865L441.041 325.689Z" fill="#1A1A1A"/>
</g>
<g clip-path="url(#clip2_11_2)">
<path d="M686.258 328.748C686.258 330.613 685.517 332.401 684.2 333.719C682.882 335.038 681.094 335.779 679.23 335.78C677.365 335.78 675.576 335.039 674.258 333.72C672.939 332.402 672.198 330.613 672.198 328.748C672.198 326.884 672.939 325.096 674.256 323.778C675.574 322.459 677.362 321.718 679.226 321.717C681.091 321.717 682.88 322.458 684.198 323.776C685.517 325.095 686.258 326.884 686.258 328.748ZM694.585 295.132C690.352 295.132 684.814 298.151 679.214 303.377C673.616 298.179 668.075 295.195 663.846 295.195C662.557 295.195 661.384 295.487 660.368 296.069C656.044 298.563 655.075 306.333 657.308 316.085C647.736 319.041 641.509 323.767 641.509 328.748C641.509 333.748 647.767 338.487 657.368 341.421C655.154 351.211 656.142 358.994 660.475 361.484C661.481 362.072 662.645 362.349 663.94 362.349C668.17 362.349 673.711 359.33 679.311 354.097C684.909 359.299 690.45 362.283 694.679 362.283C695.969 362.283 697.142 362 698.157 361.418C702.478 358.928 703.45 351.157 701.217 341.403C710.755 338.472 716.981 333.736 716.981 328.748C716.981 323.748 710.723 319.009 701.123 316.069C703.336 306.289 702.349 298.5 698.016 296.006C697.016 295.428 695.855 295.135 694.585 295.132ZM694.569 298.56V298.579C695.277 298.579 695.846 298.717 696.324 298.978C698.418 300.179 699.327 304.748 698.62 310.626C698.45 312.072 698.173 313.597 697.833 315.154C694.814 314.412 691.525 313.843 688.063 313.475C685.987 310.629 683.833 308.044 681.664 305.78C686.67 301.126 691.371 298.572 694.572 298.563L694.569 298.56ZM663.846 298.623C667.028 298.623 671.752 301.164 676.77 305.792C674.613 308.057 672.462 310.626 670.418 313.472C666.937 313.84 663.645 314.409 660.629 315.164C660.277 313.623 660.016 312.132 659.83 310.698C659.107 304.824 660 300.258 662.075 299.041C662.673 298.758 663.333 298.638 663.846 298.623ZM679.198 308.214C680.629 309.686 682.06 311.333 683.475 313.132C682.091 313.069 680.676 313.025 679.245 313.025C677.799 313.025 676.368 313.057 674.969 313.132C676.352 311.333 677.783 309.689 679.198 308.214ZM679.245 316.472C681.572 316.472 683.89 316.579 686.17 316.764C687.447 318.594 688.692 320.547 689.89 322.613C691.06 324.626 692.123 326.67 693.091 328.733C692.123 330.792 691.06 332.852 689.906 334.865C688.711 336.94 687.475 338.915 686.195 340.745C683.906 340.943 681.585 341.053 679.245 341.053C676.918 341.053 674.601 340.943 672.321 340.761C671.044 338.931 669.799 336.975 668.601 334.912C667.431 332.899 666.368 330.855 665.399 328.792C666.352 326.726 667.431 324.664 668.585 322.648C669.78 320.572 671.016 318.604 672.296 316.774C674.585 316.572 676.906 316.465 679.245 316.465V316.472ZM667.814 317.27C667.06 318.456 666.305 319.67 665.601 320.918C664.893 322.145 664.233 323.377 663.604 324.61C662.77 322.547 662.063 320.491 661.478 318.487C663.491 318.016 665.613 317.594 667.814 317.27ZM690.645 317.27C692.83 317.594 694.937 317.994 696.953 318.487C696.387 320.475 695.679 322.519 694.877 324.566C694.248 323.34 693.588 322.104 692.865 320.874C692.157 319.642 691.403 318.44 690.648 317.27H690.645ZM700.277 319.393C701.799 319.865 703.245 320.39 704.601 320.959C710.047 323.286 713.569 326.33 713.569 328.745C713.553 331.16 710.031 334.217 704.585 336.528C703.264 337.094 701.818 337.604 700.324 338.079C699.443 335.066 698.292 331.928 696.865 328.708C698.28 325.509 699.412 322.387 700.277 319.387V319.393ZM658.154 319.406C659.028 322.425 660.182 325.56 661.613 328.777C660.198 331.975 659.06 335.097 658.198 338.097C656.676 337.626 655.23 337.097 653.89 336.525C648.443 334.208 644.921 331.16 644.921 328.745C644.921 326.33 648.443 323.267 653.89 320.959C655.211 320.393 656.657 319.884 658.154 319.406ZM694.877 332.865C695.711 334.931 696.418 336.991 697.003 338.991C694.991 339.484 692.865 339.903 690.664 340.217C691.418 339.038 692.173 337.821 692.881 336.575C693.588 335.349 694.245 334.097 694.877 332.865ZM663.604 332.928C664.233 334.16 664.893 335.39 665.616 336.623C666.34 337.849 667.079 339.05 667.833 340.217C665.648 339.896 663.541 339.494 661.525 339.003C662.091 337.022 662.802 334.972 663.601 332.925L663.604 332.928ZM697.862 342.321C698.214 343.871 698.491 345.365 698.66 346.796C699.384 352.67 698.491 357.236 696.415 358.456C695.953 358.739 695.352 358.858 694.645 358.858C691.462 358.858 686.739 356.321 681.72 351.689C683.877 349.425 686.028 346.858 688.072 344.016C691.553 343.645 694.846 343.075 697.862 342.321ZM660.66 342.352C663.679 343.088 666.969 343.657 670.431 344.025C672.506 346.871 674.66 349.456 676.83 351.717C671.814 356.381 667.107 358.934 663.906 358.934C663.214 358.918 662.629 358.777 662.167 358.519C660.072 357.324 659.164 352.752 659.871 346.874C660.041 345.428 660.321 343.906 660.66 342.352ZM675 344.365C676.384 344.428 677.799 344.472 679.23 344.472C680.676 344.472 682.107 344.44 683.506 344.365C682.123 346.164 680.692 347.808 679.277 349.286C677.846 347.808 676.415 346.164 675 344.365Z" fill="#1A1A1A"/>
</g>
<g clip-path="url(#clip3_11_2)">
<path d="M1162.27 306.094C1152.2 306.094 1145.92 311.126 1143.4 321.189C1147.17 316.157 1151.58 314.27 1156.61 315.528C1159.48 316.245 1161.53 318.327 1163.8 320.635C1167.5 324.39 1171.78 328.736 1181.14 328.736C1191.2 328.736 1197.49 323.704 1200 313.642C1196.23 318.673 1191.83 320.56 1186.8 319.302C1183.92 318.585 1181.87 316.503 1179.6 314.195C1175.9 310.44 1171.62 306.094 1162.27 306.094ZM1143.4 328.736C1133.34 328.736 1127.05 333.767 1124.53 343.83C1128.31 338.799 1132.71 336.912 1137.74 338.17C1140.61 338.887 1142.66 340.969 1144.93 343.277C1148.64 347.031 1152.92 351.377 1162.27 351.377C1172.33 351.377 1178.62 346.346 1181.14 336.283C1177.36 341.314 1172.96 343.201 1167.93 341.943C1165.06 341.226 1163.01 339.145 1160.73 336.836C1157.03 333.082 1152.75 328.736 1143.4 328.736Z" fill="#1A1A1A"/>
</g>
<path d="M524.292 291C522.333 291 520.755 292.579 520.755 294.538V362.934C520.755 364.893 522.333 366.472 524.292 366.472H592.689C594.648 366.472 596.226 364.893 596.226 362.934V294.538C596.226 292.579 594.648 291 592.689 291H524.292ZM578.893 321.66C580.818 321.66 582.522 321.777 584.009 322.009C585.412 322.22 586.789 322.578 588.116 323.079V330.808C587.479 330.368 586.802 329.987 586.094 329.673C585.364 329.344 584.611 329.071 583.84 328.855C582.379 328.448 580.871 328.237 579.355 328.226C578.412 328.226 577.553 328.314 576.78 328.497C576.09 328.644 575.429 328.901 574.821 329.258C574.286 329.585 573.877 329.978 573.585 330.434C573.291 330.894 573.138 331.429 573.145 331.975C573.145 332.591 573.311 333.148 573.635 333.638C573.962 334.129 574.428 334.594 575.028 335.035C575.629 335.475 576.359 335.903 577.217 336.324C578.075 336.748 579.047 337.186 580.129 337.632C581.607 338.252 582.934 338.912 584.11 339.607C585.286 340.305 586.296 341.094 587.138 341.975C587.981 342.852 588.623 343.855 589.069 344.984C589.516 346.113 589.742 347.425 589.742 348.925C589.742 350.991 589.349 352.73 588.569 354.132C587.807 355.515 586.714 356.688 585.387 357.544C583.957 358.451 582.371 359.086 580.711 359.418C578.931 359.796 577.053 359.984 575.082 359.984C573.141 359.993 571.204 359.82 569.296 359.469C567.644 359.183 566.043 358.661 564.541 357.918V349.648C567.383 352.066 570.988 353.403 574.72 353.421C575.767 353.421 576.682 353.327 577.462 353.138C578.245 352.95 578.896 352.686 579.421 352.352C579.943 352.013 580.333 351.616 580.594 351.157C580.883 350.623 581.014 350.017 580.973 349.411C580.932 348.805 580.72 348.223 580.362 347.733C579.894 347.114 579.323 346.582 578.673 346.16C577.867 345.626 577.018 345.159 576.135 344.764C575.089 344.286 574.033 343.829 572.969 343.393C570.082 342.189 567.931 340.714 566.513 338.975C565.097 337.236 564.387 335.132 564.387 332.67C564.387 330.739 564.774 329.082 565.547 327.695C566.321 326.308 567.371 325.167 568.704 324.27C570.115 323.34 571.68 322.67 573.327 322.292C575.151 321.862 577.019 321.65 578.893 321.66ZM531.368 322.252H561.44V329.063H550.648V359.396H542.104V329.063H531.368V322.252Z" fill="#1A1A1A"/>
<g clip-path="url(#clip4_11_2)">
<path d="M957.105 337.298C957.062 337.166 957.002 337.041 956.928 336.924C956.491 336.096 955.429 335.849 953.76 336.194C948.561 337.266 946.548 336.606 945.818 336.134C950.038 329.693 953.507 321.914 955.381 314.657C956.235 311.353 957.891 303.576 955.765 299.777C955.63 299.517 955.471 299.27 955.291 299.038C951.236 293.857 945.285 291.078 938.081 291.002C933.381 290.952 929.369 292.09 928.282 292.509C927.744 292.409 927.203 292.323 926.66 292.253C925.299 292.006 923.919 291.872 922.536 291.851C918.819 291.793 915.606 292.681 912.946 294.494C910.25 293.484 897.886 289.321 890.235 294.742C885.962 297.769 883.989 303.18 884.372 310.825C884.5 313.397 885.966 321.309 888.278 328.886C889.724 333.624 891.23 337.383 892.786 340.151C894.525 343.277 896.326 345.161 898.177 345.778C899.584 346.247 901.739 346.231 904.02 343.489C906.539 340.459 909.021 337.747 910.135 336.549C911.503 337.29 912.985 337.689 914.506 337.735C914.506 337.74 914.507 337.744 914.507 337.748C914.242 338.064 913.983 338.384 913.73 338.708C912.664 340.061 912.442 340.343 909.012 341.049C908.037 341.25 905.445 341.785 905.407 343.601C905.399 343.986 905.511 344.327 905.696 344.629C906.41 345.959 908.594 346.546 908.888 346.619C913.085 347.668 916.764 346.909 919.49 344.485C919.436 351.501 919.734 358.376 920.576 360.483C921.272 362.222 922.972 366.472 928.341 366.472C929.129 366.472 929.996 366.38 930.95 366.176C936.553 364.974 938.986 362.498 939.928 357.038C940.4 354.3 941.191 347.996 941.622 344.141C941.675 343.92 941.734 343.761 941.801 343.713C941.803 343.711 942.02 343.564 943.145 343.809C943.191 343.819 943.237 343.826 943.284 343.831L944.082 343.901L944.129 343.904C946.792 344.025 950.14 343.455 952.089 342.549C954.114 341.609 957.767 339.303 957.105 337.298ZM890.475 328.347C888.137 320.688 886.771 312.986 886.663 310.826C886.321 303.997 887.974 299.244 891.575 296.698C897.351 292.614 906.795 294.997 910.783 296.289C910.773 296.299 910.762 296.308 910.752 296.319C904.388 302.746 904.539 313.727 904.555 314.399C904.554 314.658 904.575 315.024 904.606 315.529C904.715 317.375 904.919 320.813 904.375 324.706C903.869 328.324 904.984 331.864 907.434 334.42C907.687 334.685 907.952 334.933 908.225 335.167C907.135 336.335 904.765 338.917 902.243 341.952C900.458 344.098 899.225 343.687 898.82 343.552C897.587 343.141 896.263 341.705 894.926 339.393C893.418 336.755 891.896 333.004 890.475 328.347ZM909.365 344.345C908.827 344.21 908.337 343.989 908.006 343.787C908.286 343.664 908.753 343.504 909.526 343.344C913.562 342.514 914.185 341.927 915.546 340.199C915.858 339.803 916.211 339.354 916.701 338.807C916.806 338.689 916.885 338.55 916.933 338.399C917.47 337.923 917.789 338.053 918.307 338.268C918.797 338.471 919.275 339.086 919.469 339.762C919.56 340.082 919.663 340.688 919.326 341.16C916.483 345.14 912.34 345.089 909.365 344.345ZM915.95 331.804L915.785 332.247C915.367 333.369 914.978 334.411 914.737 335.401C912.638 335.395 910.596 334.498 909.043 332.878C907.069 330.818 906.172 327.952 906.583 325.015C907.158 320.902 906.945 317.321 906.831 315.397C906.815 315.127 906.801 314.892 906.793 314.705C907.723 313.881 912.031 311.573 915.104 312.276C916.506 312.598 917.36 313.552 917.715 315.195C919.554 323.697 917.959 327.241 916.677 330.089C916.413 330.675 916.164 331.23 915.95 331.804ZM939.107 346.183C939.053 346.739 938.994 347.365 938.912 348.057L938.453 349.435C938.417 349.544 938.397 349.658 938.396 349.774C938.377 351.266 938.226 351.814 938.034 352.507C937.835 353.228 937.609 354.045 937.47 355.833C937.124 360.28 934.709 362.835 929.869 363.872C925.103 364.894 924.258 362.31 923.513 360.03C923.437 359.791 923.356 359.554 923.271 359.318C922.594 357.475 922.67 354.878 922.776 351.283C922.828 349.518 922.698 345.304 921.738 342.961C921.752 342.039 921.771 341.103 921.798 340.157C921.801 340.037 921.784 339.917 921.749 339.803C921.719 339.582 921.673 339.363 921.611 339.149C921.226 337.802 920.286 336.675 919.159 336.208C918.712 336.023 917.89 335.682 916.902 335.935C917.113 335.067 917.478 334.087 917.874 333.026L918.04 332.58C918.227 332.077 918.462 331.556 918.71 331.004C920.051 328.024 921.888 323.943 919.894 314.723C919.148 311.27 916.654 309.584 912.874 309.975C910.608 310.21 908.535 311.125 907.501 311.649C907.293 311.754 907.088 311.863 906.885 311.976C907.174 308.497 908.264 301.995 912.343 297.881C912.646 297.576 912.964 297.286 913.297 297.013C913.462 296.981 913.618 296.911 913.752 296.81C916.118 295.016 919.081 294.136 922.563 294.192C923.85 294.214 925.084 294.299 926.256 294.447C932.353 295.562 936.457 298.997 938.947 301.94C941.508 304.966 942.894 308.014 943.448 309.658C939.287 309.235 936.456 310.057 935.021 312.108C931.9 316.569 936.729 325.23 939.05 329.392C939.475 330.155 939.843 330.814 939.958 331.094C940.714 332.926 941.692 334.148 942.407 335.041C942.626 335.315 942.838 335.58 943 335.812C941.739 336.175 939.475 337.014 939.681 341.211C939.643 341.703 939.548 342.616 939.419 343.773C939.274 344.426 939.198 345.221 939.107 346.183ZM941.907 341.085C941.78 338.47 942.753 338.197 943.783 337.907C943.926 337.868 944.067 337.826 944.208 337.78C944.341 337.897 944.482 338.006 944.63 338.103C946.423 339.287 949.606 339.428 954.085 338.526C953.451 339.082 952.453 339.782 951.087 340.416C949.799 341.015 947.642 341.464 945.593 341.56C943.33 341.665 942.178 341.306 941.907 341.085ZM943.698 311.93C943.679 313.033 943.527 314.035 943.366 315.08C943.193 316.205 943.014 317.368 942.969 318.779C942.924 320.153 943.096 321.581 943.262 322.962C943.597 325.751 943.941 328.623 942.609 331.457C942.388 331.065 942.191 330.66 942.02 330.244C941.854 329.843 941.495 329.198 940.997 328.306C939.061 324.834 934.527 316.704 936.848 313.386C938.042 311.68 941.065 311.606 943.698 311.93ZM944.416 333.986C944.327 333.873 944.238 333.76 944.148 333.648L944.036 333.508C946.32 329.736 945.873 326.005 945.476 322.696C945.313 321.338 945.159 320.055 945.198 318.851C945.238 317.574 945.407 316.479 945.57 315.42C945.771 314.115 945.975 312.765 945.919 311.173C945.961 311.006 945.978 310.809 945.956 310.575C945.812 309.048 944.07 304.481 940.518 300.345C938.607 298.121 935.833 295.637 932.062 293.932C933.713 293.597 935.939 293.292 938.428 293.347C944.879 293.491 949.983 295.905 953.598 300.525C953.675 300.625 953.745 300.73 953.808 300.84C956.082 305.103 952.94 320.573 944.416 333.986ZM916.691 314.753C916.612 315.317 915.72 316.081 914.738 316.081C914.653 316.081 914.568 316.075 914.483 316.064C913.894 315.982 913.299 315.611 912.892 315.071C912.748 314.881 912.514 314.511 912.561 314.177C912.578 314.051 912.643 313.867 912.852 313.709C913.223 313.428 913.958 313.323 914.769 313.436C915.763 313.575 916.789 314.046 916.691 314.753ZM941.63 313.459C941.664 313.708 941.475 314.091 941.148 314.434C940.933 314.66 940.481 315.051 939.865 315.136C939.787 315.147 939.708 315.152 939.63 315.153C938.707 315.153 937.927 314.415 937.866 313.984C937.791 313.429 938.697 313.007 939.631 312.877C940.565 312.747 941.553 312.904 941.63 313.459Z" fill="#1A1A1A"/>
</g>
<g clip-path="url(#clip5_11_2)">
<path d="M1057.84 321.047C1053.86 303.5 1044.47 297.733 1043.46 295.528C1042.58 294.289 1041.79 292.528 1041.15 291C1041.03 292.557 1040.97 293.154 1039.5 294.723C1037.23 296.503 1025.55 306.302 1024.6 326.233C1023.71 344.824 1038.03 355.903 1039.97 357.314L1040.19 357.472C1040.59 360.465 1040.94 363.465 1041.23 366.472H1042.74C1043.1 363.226 1043.63 360.006 1044.34 356.818C1045.65 355.887 1046.24 355.362 1047.02 354.638C1050.68 351.249 1053.59 347.129 1055.56 342.544C1057.53 337.96 1058.52 333.012 1058.46 328.022C1058.49 325.462 1058.14 322.796 1057.84 321.047ZM1041.06 346.818C1041.06 346.818 1041.06 320.745 1041.92 320.748C1042.59 320.748 1043.47 354.381 1043.47 354.381C1042.27 354.239 1041.06 348.846 1041.06 346.818Z" fill="#1A1A1A"/>
</g>
<defs>
<linearGradient id="paint0_linear_11_2" x1="0" y1="0" x2="1600" y2="900" gradientUnits="userSpaceOnUse">
<stop stop-color="#7F7FD5"/>
<stop offset="0.475" stop-color="#86A8E7"/>
<stop offset="1" stop-color="#91EAE4"/>
</linearGradient>
<clipPath id="clip0_11_2">
<rect width="75.4717" height="75.4717" fill="white" transform="translate(762.264 291)"/>
</clipPath>
<clipPath id="clip1_11_2">
<rect width="75.4717" height="75.4717" fill="white" transform="translate(400 291)"/>
</clipPath>
<clipPath id="clip2_11_2">
<rect width="75.4717" height="75.4717" fill="white" transform="translate(641.509 291)"/>
</clipPath>
<clipPath id="clip3_11_2">
<rect width="75.4717" height="75.4717" fill="white" transform="translate(1124.53 291)"/>
</clipPath>
<clipPath id="clip4_11_2">
<rect width="75.4717" height="75.4717" fill="white" transform="translate(883.019 291)"/>
</clipPath>
<clipPath id="clip5_11_2">
<rect width="75.4717" height="75.4717" fill="white" transform="translate(1003.77 291)"/>
</clipPath>
</defs>
</svg>
