<svg width="1500" height="500" viewBox="0 0 1500 500" fill="none" xmlns="http://www.w3.org/2000/svg">
<rect width="1500" height="500" fill="url(#paint0_linear_11_52)"/>
<path d="M397.221 385.15C395.514 385.15 393.887 384.883 392.341 384.35C390.794 383.817 389.447 383.07 388.301 382.11C387.154 381.15 386.314 380.043 385.781 378.79C385.514 378.23 385.514 377.71 385.781 377.23C386.074 376.75 386.554 376.443 387.221 376.31C387.701 376.203 388.167 376.283 388.621 376.55C389.101 376.79 389.461 377.163 389.701 377.67C390.021 378.337 390.541 378.95 391.261 379.51C392.007 380.07 392.901 380.523 393.941 380.87C394.981 381.217 396.074 381.39 397.221 381.39C398.501 381.39 399.674 381.19 400.741 380.79C401.834 380.39 402.714 379.817 403.381 379.07C404.047 378.297 404.381 377.35 404.381 376.23C404.381 374.817 403.821 373.55 402.701 372.43C401.607 371.31 399.794 370.617 397.261 370.35C393.954 370.03 391.354 369.057 389.461 367.43C387.567 365.803 386.621 363.79 386.621 361.39C386.621 359.63 387.114 358.137 388.101 356.91C389.087 355.683 390.421 354.75 392.101 354.11C393.807 353.47 395.701 353.15 397.781 353.15C399.407 353.15 400.821 353.377 402.021 353.83C403.247 354.283 404.314 354.91 405.221 355.71C406.127 356.51 406.914 357.457 407.581 358.55C407.954 359.137 408.101 359.697 408.021 360.23C407.967 360.737 407.714 361.137 407.261 361.43C406.754 361.75 406.207 361.817 405.621 361.63C405.034 361.443 404.594 361.097 404.301 360.59C403.874 359.817 403.354 359.163 402.741 358.63C402.127 358.097 401.407 357.683 400.581 357.39C399.754 357.07 398.781 356.91 397.661 356.91C395.687 356.883 394.034 357.257 392.701 358.03C391.367 358.777 390.701 359.937 390.701 361.51C390.701 362.31 390.901 363.083 391.301 363.83C391.727 364.55 392.487 365.177 393.581 365.71C394.701 366.243 396.301 366.617 398.381 366.83C401.554 367.15 404.021 368.123 405.781 369.75C407.567 371.35 408.461 373.47 408.461 376.11C408.461 377.63 408.141 378.95 407.501 380.07C406.887 381.19 406.047 382.137 404.981 382.91C403.941 383.657 402.741 384.217 401.381 384.59C400.047 384.963 398.661 385.15 397.221 385.15ZM424.36 384.91C422.2 384.91 420.293 384.443 418.64 383.51C416.987 382.55 415.68 381.243 414.72 379.59C413.787 377.91 413.32 375.99 413.32 373.83C413.32 371.643 413.787 369.723 414.72 368.07C415.68 366.39 416.987 365.083 418.64 364.15C420.293 363.19 422.2 362.71 424.36 362.71C426.493 362.71 428.387 363.19 430.04 364.15C431.693 365.083 432.987 366.39 433.92 368.07C434.88 369.723 435.36 371.643 435.36 373.83C435.36 375.99 434.893 377.91 433.96 379.59C433.027 381.243 431.733 382.55 430.08 383.51C428.427 384.443 426.52 384.91 424.36 384.91ZM424.36 381.31C425.747 381.31 426.973 380.99 428.04 380.35C429.107 379.71 429.933 378.83 430.52 377.71C431.133 376.59 431.44 375.297 431.44 373.83C431.44 372.363 431.133 371.07 430.52 369.95C429.933 368.803 429.107 367.91 428.04 367.27C426.973 366.63 425.747 366.31 424.36 366.31C422.973 366.31 421.747 366.63 420.68 367.27C419.613 367.91 418.773 368.803 418.16 369.95C417.547 371.07 417.24 372.363 417.24 373.83C417.24 375.297 417.547 376.59 418.16 377.71C418.773 378.83 419.613 379.71 420.68 380.35C421.747 380.99 422.973 381.31 424.36 381.31ZM443.792 384.75C443.285 384.75 442.832 384.563 442.432 384.19C442.032 383.817 441.832 383.323 441.832 382.71V362.99C441.832 361.07 442.205 359.403 442.952 357.99C443.725 356.577 444.792 355.483 446.152 354.71C447.512 353.91 449.085 353.51 450.872 353.51C451.459 353.51 451.939 353.683 452.312 354.03C452.712 354.377 452.912 354.817 452.912 355.35C452.912 355.857 452.712 356.297 452.312 356.67C451.939 357.017 451.459 357.19 450.872 357.19C449.885 357.19 449.019 357.417 448.272 357.87C447.525 358.323 446.939 358.95 446.512 359.75C446.112 360.55 445.912 361.497 445.912 362.59V382.71C445.912 383.323 445.725 383.817 445.352 384.19C444.979 384.563 444.459 384.75 443.792 384.75ZM440.112 367.11C439.552 367.11 439.099 366.95 438.752 366.63C438.405 366.31 438.232 365.91 438.232 365.43C438.232 364.897 438.405 364.47 438.752 364.15C439.099 363.83 439.552 363.67 440.112 363.67H449.992C450.552 363.67 451.005 363.83 451.352 364.15C451.699 364.47 451.872 364.897 451.872 365.43C451.872 365.91 451.699 366.31 451.352 366.63C451.005 366.95 450.552 367.11 449.992 367.11H440.112ZM464.08 384.75C462.746 384.75 461.546 384.417 460.48 383.75C459.413 383.057 458.573 382.123 457.96 380.95C457.346 379.777 457.04 378.457 457.04 376.99V357.91C457.04 357.323 457.226 356.843 457.6 356.47C457.973 356.097 458.453 355.91 459.04 355.91C459.626 355.91 460.106 356.097 460.48 356.47C460.853 356.843 461.04 357.323 461.04 357.91V376.99C461.04 378.057 461.333 378.95 461.92 379.67C462.506 380.39 463.226 380.75 464.08 380.75H465.44C465.92 380.75 466.32 380.937 466.64 381.31C466.986 381.683 467.16 382.163 467.16 382.75C467.16 383.337 466.933 383.817 466.48 384.19C466.053 384.563 465.493 384.75 464.8 384.75H464.08ZM455.2 367.11C454.64 367.11 454.186 366.95 453.84 366.63C453.493 366.31 453.32 365.91 453.32 365.43C453.32 364.897 453.493 364.47 453.84 364.15C454.186 363.83 454.64 363.67 455.2 363.67H464.44C465 363.67 465.453 363.83 465.8 364.15C466.146 364.47 466.32 364.897 466.32 365.43C466.32 365.91 466.146 366.31 465.8 366.63C465.453 366.95 465 367.11 464.44 367.11H455.2ZM477.214 384.75C476.788 384.75 476.388 384.63 476.014 384.39C475.668 384.123 475.428 383.803 475.294 383.43L469.374 365.67C469.161 364.843 469.161 364.177 469.374 363.67C469.614 363.137 470.121 362.87 470.894 362.87C471.401 362.87 471.814 363.017 472.134 363.31C472.481 363.577 472.761 364.043 472.974 364.71L478.014 380.47H476.614L481.374 364.39C481.508 363.937 481.734 363.577 482.054 363.31C482.374 363.017 482.814 362.87 483.374 362.87C483.908 362.87 484.334 363.017 484.654 363.31C485.001 363.577 485.228 363.937 485.334 364.39L489.214 379.51H488.614L493.334 364.71C493.708 363.483 494.401 362.87 495.414 362.87C496.161 362.87 496.668 363.137 496.934 363.67C497.201 364.177 497.188 364.843 496.894 365.67L490.974 383.43C490.868 383.803 490.641 384.123 490.294 384.39C489.948 384.63 489.548 384.75 489.094 384.75C488.668 384.75 488.268 384.63 487.894 384.39C487.521 384.123 487.281 383.803 487.174 383.43L483.054 368.19H483.454L479.134 383.43C479.028 383.803 478.788 384.123 478.414 384.39C478.068 384.63 477.668 384.75 477.214 384.75ZM509.615 384.91C507.668 384.91 505.921 384.43 504.375 383.47C502.828 382.483 501.601 381.163 500.695 379.51C499.815 377.83 499.375 375.937 499.375 373.83C499.375 371.723 499.855 369.83 500.815 368.15C501.801 366.47 503.121 365.15 504.775 364.19C506.455 363.203 508.335 362.71 510.415 362.71C512.495 362.71 514.361 363.203 516.015 364.19C517.668 365.15 518.975 366.47 519.935 368.15C520.921 369.83 521.415 371.723 521.415 373.83H519.855C519.855 375.937 519.401 377.83 518.495 379.51C517.615 381.163 516.401 382.483 514.855 383.47C513.308 384.43 511.561 384.91 509.615 384.91ZM510.415 381.31C511.775 381.31 512.988 380.99 514.055 380.35C515.121 379.683 515.961 378.79 516.575 377.67C517.188 376.523 517.495 375.243 517.495 373.83C517.495 372.39 517.188 371.11 516.575 369.99C515.961 368.843 515.121 367.95 514.055 367.31C512.988 366.643 511.775 366.31 510.415 366.31C509.081 366.31 507.868 366.643 506.775 367.31C505.708 367.95 504.855 368.843 504.215 369.99C503.601 371.11 503.295 372.39 503.295 373.83C503.295 375.243 503.601 376.523 504.215 377.67C504.855 378.79 505.708 379.683 506.775 380.35C507.868 380.99 509.081 381.31 510.415 381.31ZM519.375 384.79C518.788 384.79 518.295 384.603 517.895 384.23C517.521 383.83 517.335 383.337 517.335 382.75V376.63L518.095 372.39L521.415 373.83V382.75C521.415 383.337 521.215 383.83 520.815 384.23C520.441 384.603 519.961 384.79 519.375 384.79ZM529.447 371.07C529.447 369.47 529.833 368.043 530.607 366.79C531.407 365.51 532.473 364.497 533.807 363.75C535.14 363.003 536.607 362.63 538.207 362.63C539.807 362.63 540.993 362.897 541.767 363.43C542.567 363.937 542.873 364.55 542.687 365.27C542.607 365.643 542.447 365.937 542.207 366.15C541.993 366.337 541.74 366.457 541.447 366.51C541.153 366.563 540.833 366.55 540.487 366.47C538.78 366.123 537.247 366.097 535.887 366.39C534.527 366.683 533.447 367.23 532.647 368.03C531.873 368.83 531.487 369.843 531.487 371.07H529.447ZM529.487 384.75C528.847 384.75 528.353 384.59 528.007 384.27C527.66 383.923 527.487 383.417 527.487 382.75V364.87C527.487 364.23 527.66 363.737 528.007 363.39C528.353 363.043 528.847 362.87 529.487 362.87C530.153 362.87 530.647 363.043 530.967 363.39C531.313 363.71 531.487 364.203 531.487 364.87V382.75C531.487 383.39 531.313 383.883 530.967 384.23C530.647 384.577 530.153 384.75 529.487 384.75ZM555.618 384.91C553.405 384.91 551.432 384.443 549.698 383.51C547.992 382.55 546.645 381.243 545.658 379.59C544.698 377.91 544.218 375.99 544.218 373.83C544.218 371.643 544.672 369.723 545.578 368.07C546.512 366.39 547.792 365.083 549.418 364.15C551.045 363.19 552.912 362.71 555.018 362.71C557.098 362.71 558.885 363.177 560.378 364.11C561.872 365.017 563.005 366.283 563.778 367.91C564.578 369.51 564.978 371.363 564.978 373.47C564.978 373.977 564.805 374.403 564.458 374.75C564.112 375.07 563.672 375.23 563.138 375.23H547.018V372.03H563.018L561.378 373.15C561.352 371.817 561.085 370.63 560.578 369.59C560.072 368.523 559.352 367.683 558.418 367.07C557.485 366.457 556.352 366.15 555.018 366.15C553.498 366.15 552.192 366.483 551.098 367.15C550.032 367.817 549.218 368.737 548.658 369.91C548.098 371.057 547.818 372.363 547.818 373.83C547.818 375.297 548.152 376.603 548.818 377.75C549.485 378.897 550.405 379.803 551.578 380.47C552.752 381.137 554.098 381.47 555.618 381.47C556.445 381.47 557.285 381.323 558.138 381.03C559.018 380.71 559.725 380.35 560.258 379.95C560.658 379.657 561.085 379.51 561.538 379.51C562.018 379.483 562.432 379.617 562.778 379.91C563.232 380.31 563.472 380.75 563.498 381.23C563.525 381.71 563.312 382.123 562.858 382.47C561.952 383.19 560.818 383.777 559.458 384.23C558.125 384.683 556.845 384.91 555.618 384.91ZM584.381 384.75C583.794 384.75 583.301 384.55 582.901 384.15C582.501 383.75 582.301 383.257 582.301 382.67V355.59C582.301 354.977 582.501 354.483 582.901 354.11C583.301 353.71 583.794 353.51 584.381 353.51H602.461C603.074 353.51 603.567 353.697 603.941 354.07C604.314 354.417 604.501 354.883 604.501 355.47C604.501 356.03 604.314 356.483 603.941 356.83C603.567 357.177 603.074 357.35 602.461 357.35H586.461V367.07H597.941C598.554 367.07 599.047 367.257 599.421 367.63C599.794 367.977 599.981 368.43 599.981 368.99C599.981 369.55 599.794 370.017 599.421 370.39C599.047 370.737 598.554 370.91 597.941 370.91H586.461V380.91H602.461C603.074 380.91 603.567 381.083 603.941 381.43C604.314 381.777 604.501 382.23 604.501 382.79C604.501 383.377 604.314 383.857 603.941 384.23C603.567 384.577 603.074 384.75 602.461 384.75H584.381ZM628.389 384.79C627.802 384.79 627.309 384.603 626.909 384.23C626.535 383.83 626.349 383.337 626.349 382.75V372.91C626.349 371.39 626.069 370.15 625.509 369.19C624.949 368.23 624.189 367.523 623.229 367.07C622.295 366.59 621.215 366.35 619.989 366.35C618.869 366.35 617.855 366.577 616.949 367.03C616.042 367.483 615.322 368.097 614.789 368.87C614.255 369.617 613.989 370.483 613.989 371.47H611.469C611.469 369.79 611.869 368.297 612.669 366.99C613.495 365.657 614.615 364.603 616.029 363.83C617.442 363.057 619.029 362.67 620.789 362.67C622.629 362.67 624.269 363.07 625.709 363.87C627.175 364.643 628.322 365.79 629.149 367.31C630.002 368.83 630.429 370.697 630.429 372.91V382.75C630.429 383.337 630.229 383.83 629.829 384.23C629.455 384.603 628.975 384.79 628.389 384.79ZM611.949 384.79C611.362 384.79 610.869 384.603 610.469 384.23C610.095 383.83 609.909 383.337 609.909 382.75V364.91C609.909 364.297 610.095 363.803 610.469 363.43C610.869 363.057 611.362 362.87 611.949 362.87C612.562 362.87 613.055 363.057 613.429 363.43C613.802 363.803 613.989 364.297 613.989 364.91V382.75C613.989 383.337 613.802 383.83 613.429 384.23C613.055 384.603 612.562 384.79 611.949 384.79ZM646.294 384.91C644.294 384.91 642.521 384.443 640.974 383.51C639.454 382.55 638.254 381.243 637.374 379.59C636.494 377.91 636.054 375.99 636.054 373.83C636.054 371.643 636.521 369.723 637.454 368.07C638.414 366.39 639.721 365.083 641.374 364.15C643.028 363.19 644.934 362.71 647.094 362.71C649.228 362.71 651.121 363.19 652.774 364.15C654.428 365.083 655.721 366.39 656.654 368.07C657.614 369.723 658.094 371.643 658.094 373.83H655.734C655.734 375.99 655.321 377.91 654.494 379.59C653.694 381.243 652.588 382.55 651.174 383.51C649.761 384.443 648.134 384.91 646.294 384.91ZM647.014 393.83C645.121 393.83 643.348 393.457 641.694 392.71C640.041 391.963 638.641 390.87 637.494 389.43C637.148 388.977 637.014 388.51 637.094 388.03C637.201 387.55 637.468 387.163 637.894 386.87C638.374 386.55 638.868 386.443 639.374 386.55C639.908 386.657 640.334 386.923 640.654 387.35C641.374 388.257 642.281 388.963 643.374 389.47C644.468 389.977 645.708 390.23 647.094 390.23C648.374 390.23 649.548 389.923 650.614 389.31C651.708 388.697 652.574 387.79 653.214 386.59C653.854 385.39 654.174 383.923 654.174 382.19V376.51L655.494 372.99L658.094 373.83V382.47C658.094 384.577 657.628 386.483 656.694 388.19C655.761 389.923 654.454 391.297 652.774 392.31C651.121 393.323 649.201 393.83 647.014 393.83ZM647.094 381.31C648.481 381.31 649.708 380.99 650.774 380.35C651.841 379.71 652.668 378.83 653.254 377.71C653.868 376.59 654.174 375.297 654.174 373.83C654.174 372.363 653.868 371.07 653.254 369.95C652.668 368.803 651.841 367.91 650.774 367.27C649.708 366.63 648.481 366.31 647.094 366.31C645.708 366.31 644.481 366.63 643.414 367.27C642.348 367.91 641.508 368.803 640.894 369.95C640.281 371.07 639.974 372.363 639.974 373.83C639.974 375.297 640.281 376.59 640.894 377.71C641.508 378.83 642.348 379.71 643.414 380.35C644.481 380.99 645.708 381.31 647.094 381.31ZM666.606 384.75C666.02 384.75 665.526 384.563 665.126 384.19C664.753 383.79 664.566 383.297 664.566 382.71V364.91C664.566 364.297 664.753 363.803 665.126 363.43C665.526 363.057 666.02 362.87 666.606 362.87C667.22 362.87 667.713 363.057 668.086 363.43C668.46 363.803 668.646 364.297 668.646 364.91V382.71C668.646 383.297 668.46 383.79 668.086 384.19C667.713 384.563 667.22 384.75 666.606 384.75ZM666.606 359.31C665.886 359.31 665.26 359.057 664.726 358.55C664.22 358.017 663.966 357.39 663.966 356.67C663.966 355.95 664.22 355.337 664.726 354.83C665.26 354.297 665.886 354.03 666.606 354.03C667.326 354.03 667.94 354.297 668.446 354.83C668.98 355.337 669.246 355.95 669.246 356.67C669.246 357.39 668.98 358.017 668.446 358.55C667.94 359.057 667.326 359.31 666.606 359.31ZM694.717 384.79C694.13 384.79 693.637 384.603 693.237 384.23C692.863 383.83 692.677 383.337 692.677 382.75V372.91C692.677 371.39 692.397 370.15 691.837 369.19C691.277 368.23 690.517 367.523 689.557 367.07C688.623 366.59 687.543 366.35 686.317 366.35C685.197 366.35 684.183 366.577 683.277 367.03C682.37 367.483 681.65 368.097 681.117 368.87C680.583 369.617 680.317 370.483 680.317 371.47H677.797C677.797 369.79 678.197 368.297 678.997 366.99C679.823 365.657 680.943 364.603 682.357 363.83C683.77 363.057 685.357 362.67 687.117 362.67C688.957 362.67 690.597 363.07 692.037 363.87C693.503 364.643 694.65 365.79 695.477 367.31C696.33 368.83 696.757 370.697 696.757 372.91V382.75C696.757 383.337 696.557 383.83 696.157 384.23C695.783 384.603 695.303 384.79 694.717 384.79ZM678.277 384.79C677.69 384.79 677.197 384.603 676.797 384.23C676.423 383.83 676.237 383.337 676.237 382.75V364.91C676.237 364.297 676.423 363.803 676.797 363.43C677.197 363.057 677.69 362.87 678.277 362.87C678.89 362.87 679.383 363.057 679.757 363.43C680.13 363.803 680.317 364.297 680.317 364.91V382.75C680.317 383.337 680.13 383.83 679.757 384.23C679.383 384.603 678.89 384.79 678.277 384.79ZM713.782 384.91C711.569 384.91 709.596 384.443 707.862 383.51C706.156 382.55 704.809 381.243 703.822 379.59C702.862 377.91 702.382 375.99 702.382 373.83C702.382 371.643 702.836 369.723 703.742 368.07C704.676 366.39 705.956 365.083 707.582 364.15C709.209 363.19 711.076 362.71 713.182 362.71C715.262 362.71 717.049 363.177 718.542 364.11C720.036 365.017 721.169 366.283 721.942 367.91C722.742 369.51 723.142 371.363 723.142 373.47C723.142 373.977 722.969 374.403 722.622 374.75C722.276 375.07 721.836 375.23 721.302 375.23H705.182V372.03H721.182L719.542 373.15C719.516 371.817 719.249 370.63 718.742 369.59C718.236 368.523 717.516 367.683 716.582 367.07C715.649 366.457 714.516 366.15 713.182 366.15C711.662 366.15 710.356 366.483 709.262 367.15C708.196 367.817 707.382 368.737 706.822 369.91C706.262 371.057 705.982 372.363 705.982 373.83C705.982 375.297 706.316 376.603 706.982 377.75C707.649 378.897 708.569 379.803 709.742 380.47C710.916 381.137 712.262 381.47 713.782 381.47C714.609 381.47 715.449 381.323 716.302 381.03C717.182 380.71 717.889 380.35 718.422 379.95C718.822 379.657 719.249 379.51 719.702 379.51C720.182 379.483 720.596 379.617 720.942 379.91C721.396 380.31 721.636 380.75 721.662 381.23C721.689 381.71 721.476 382.123 721.022 382.47C720.116 383.19 718.982 383.777 717.622 384.23C716.289 384.683 715.009 384.91 713.782 384.91ZM737.845 384.91C735.632 384.91 733.658 384.443 731.925 383.51C730.218 382.55 728.872 381.243 727.885 379.59C726.925 377.91 726.445 375.99 726.445 373.83C726.445 371.643 726.898 369.723 727.805 368.07C728.738 366.39 730.018 365.083 731.645 364.15C733.272 363.19 735.138 362.71 737.245 362.71C739.325 362.71 741.112 363.177 742.605 364.11C744.098 365.017 745.232 366.283 746.005 367.91C746.805 369.51 747.205 371.363 747.205 373.47C747.205 373.977 747.032 374.403 746.685 374.75C746.338 375.07 745.898 375.23 745.365 375.23H729.245V372.03H745.245L743.605 373.15C743.578 371.817 743.312 370.63 742.805 369.59C742.298 368.523 741.578 367.683 740.645 367.07C739.712 366.457 738.578 366.15 737.245 366.15C735.725 366.15 734.418 366.483 733.325 367.15C732.258 367.817 731.445 368.737 730.885 369.91C730.325 371.057 730.045 372.363 730.045 373.83C730.045 375.297 730.378 376.603 731.045 377.75C731.712 378.897 732.632 379.803 733.805 380.47C734.978 381.137 736.325 381.47 737.845 381.47C738.672 381.47 739.512 381.323 740.365 381.03C741.245 380.71 741.952 380.35 742.485 379.95C742.885 379.657 743.312 379.51 743.765 379.51C744.245 379.483 744.658 379.617 745.005 379.91C745.458 380.31 745.698 380.75 745.725 381.23C745.752 381.71 745.538 382.123 745.085 382.47C744.178 383.19 743.045 383.777 741.685 384.23C740.352 384.683 739.072 384.91 737.845 384.91ZM754.369 371.07C754.369 369.47 754.755 368.043 755.529 366.79C756.329 365.51 757.395 364.497 758.729 363.75C760.062 363.003 761.529 362.63 763.129 362.63C764.729 362.63 765.915 362.897 766.689 363.43C767.489 363.937 767.795 364.55 767.609 365.27C767.529 365.643 767.369 365.937 767.129 366.15C766.915 366.337 766.662 366.457 766.369 366.51C766.075 366.563 765.755 366.55 765.409 366.47C763.702 366.123 762.169 366.097 760.809 366.39C759.449 366.683 758.369 367.23 757.569 368.03C756.795 368.83 756.409 369.843 756.409 371.07H754.369ZM754.409 384.75C753.769 384.75 753.275 384.59 752.929 384.27C752.582 383.923 752.409 383.417 752.409 382.75V364.87C752.409 364.23 752.582 363.737 752.929 363.39C753.275 363.043 753.769 362.87 754.409 362.87C755.075 362.87 755.569 363.043 755.889 363.39C756.235 363.71 756.409 364.203 756.409 364.87V382.75C756.409 383.39 756.235 383.883 755.889 384.23C755.569 384.577 755.075 384.75 754.409 384.75ZM787.9 394.11C787.314 394.11 786.82 393.91 786.42 393.51C786.047 393.137 785.86 392.657 785.86 392.07V355.55C785.86 354.963 786.047 354.483 786.42 354.11C786.82 353.71 787.314 353.51 787.9 353.51C788.514 353.51 789.007 353.71 789.38 354.11C789.754 354.483 789.94 354.963 789.94 355.55V392.07C789.94 392.657 789.754 393.137 789.38 393.51C789.007 393.91 788.514 394.11 787.9 394.11ZM817.964 384.75C817.484 384.75 817.058 384.603 816.684 384.31C816.311 384.017 816.044 383.617 815.884 383.11L807.844 356.39C807.578 355.51 807.591 354.817 807.884 354.31C808.204 353.777 808.711 353.51 809.404 353.51C809.858 353.51 810.271 353.643 810.644 353.91C811.018 354.15 811.284 354.537 811.444 355.07L818.444 379.47H817.564L824.044 355.31C824.151 354.91 824.391 354.577 824.764 354.31C825.138 354.043 825.564 353.91 826.044 353.91C826.471 353.91 826.871 354.03 827.244 354.27C827.644 354.483 827.898 354.817 828.004 355.27L834.524 379.47H833.724L840.764 354.87C841.031 353.963 841.711 353.51 842.804 353.51C843.551 353.51 844.031 353.803 844.244 354.39C844.458 354.95 844.458 355.617 844.244 356.39L836.204 383.07C836.018 383.577 835.738 383.99 835.364 384.31C835.018 384.603 834.604 384.75 834.124 384.75C833.618 384.75 833.178 384.59 832.804 384.27C832.458 383.95 832.204 383.563 832.044 383.11L825.604 358.23H826.564L820.044 383.07C819.858 383.577 819.578 383.99 819.204 384.31C818.858 384.603 818.444 384.75 817.964 384.75ZM854.329 384.91C852.116 384.91 850.143 384.443 848.409 383.51C846.703 382.55 845.356 381.243 844.369 379.59C843.409 377.91 842.929 375.99 842.929 373.83C842.929 371.643 843.383 369.723 844.289 368.07C845.223 366.39 846.503 365.083 848.129 364.15C849.756 363.19 851.623 362.71 853.729 362.71C855.809 362.71 857.596 363.177 859.089 364.11C860.583 365.017 861.716 366.283 862.489 367.91C863.289 369.51 863.689 371.363 863.689 373.47C863.689 373.977 863.516 374.403 863.169 374.75C862.823 375.07 862.383 375.23 861.849 375.23H845.729V372.03H861.729L860.089 373.15C860.063 371.817 859.796 370.63 859.289 369.59C858.783 368.523 858.063 367.683 857.129 367.07C856.196 366.457 855.063 366.15 853.729 366.15C852.209 366.15 850.903 366.483 849.809 367.15C848.743 367.817 847.929 368.737 847.369 369.91C846.809 371.057 846.529 372.363 846.529 373.83C846.529 375.297 846.863 376.603 847.529 377.75C848.196 378.897 849.116 379.803 850.289 380.47C851.463 381.137 852.809 381.47 854.329 381.47C855.156 381.47 855.996 381.323 856.849 381.03C857.729 380.71 858.436 380.35 858.969 379.95C859.369 379.657 859.796 379.51 860.249 379.51C860.729 379.483 861.143 379.617 861.489 379.91C861.943 380.31 862.183 380.75 862.209 381.23C862.236 381.71 862.023 382.123 861.569 382.47C860.663 383.19 859.529 383.777 858.169 384.23C856.836 384.683 855.556 384.91 854.329 384.91ZM879.893 384.91C877.813 384.91 875.946 384.43 874.293 383.47C872.64 382.483 871.333 381.15 870.373 379.47C869.413 377.79 868.92 375.897 868.893 373.79V355.55C868.893 354.937 869.08 354.443 869.453 354.07C869.853 353.697 870.346 353.51 870.933 353.51C871.546 353.51 872.04 353.697 872.413 354.07C872.786 354.443 872.973 354.937 872.973 355.55V366.35C873.906 365.23 875.026 364.35 876.333 363.71C877.666 363.043 879.12 362.71 880.693 362.71C882.64 362.71 884.386 363.203 885.933 364.19C887.48 365.15 888.693 366.47 889.573 368.15C890.48 369.803 890.933 371.683 890.933 373.79C890.933 375.897 890.44 377.79 889.453 379.47C888.493 381.15 887.186 382.483 885.533 383.47C883.88 384.43 882 384.91 879.893 384.91ZM879.893 381.31C881.253 381.31 882.466 380.99 883.533 380.35C884.6 379.683 885.44 378.777 886.053 377.63C886.693 376.483 887.013 375.203 887.013 373.79C887.013 372.35 886.693 371.07 886.053 369.95C885.44 368.83 884.6 367.95 883.533 367.31C882.466 366.643 881.253 366.31 879.893 366.31C878.56 366.31 877.346 366.643 876.253 367.31C875.186 367.95 874.346 368.83 873.733 369.95C873.12 371.07 872.813 372.35 872.813 373.79C872.813 375.203 873.12 376.483 873.733 377.63C874.346 378.777 875.186 379.683 876.253 380.35C877.346 380.99 878.56 381.31 879.893 381.31ZM911.217 384.75C910.63 384.75 910.137 384.55 909.737 384.15C909.337 383.75 909.137 383.257 909.137 382.67V355.59C909.137 354.977 909.337 354.483 909.737 354.11C910.137 353.71 910.63 353.51 911.217 353.51H918.457C920.75 353.51 922.83 353.897 924.697 354.67C926.59 355.417 928.23 356.497 929.617 357.91C931.003 359.297 932.07 360.937 932.817 362.83C933.563 364.723 933.937 366.817 933.937 369.11C933.937 371.403 933.563 373.51 932.817 375.43C932.07 377.323 931.003 378.977 929.617 380.39C928.23 381.777 926.59 382.857 924.697 383.63C922.83 384.377 920.75 384.75 918.457 384.75H911.217ZM913.297 381.07H918.457C920.697 381.07 922.67 380.563 924.377 379.55C926.11 378.51 927.47 377.097 928.457 375.31C929.443 373.497 929.937 371.43 929.937 369.11C929.937 366.763 929.443 364.697 928.457 362.91C927.47 361.123 926.11 359.723 924.377 358.71C922.67 357.697 920.697 357.19 918.457 357.19H913.297V381.07ZM950.345 384.91C948.132 384.91 946.158 384.443 944.425 383.51C942.718 382.55 941.372 381.243 940.385 379.59C939.425 377.91 938.945 375.99 938.945 373.83C938.945 371.643 939.398 369.723 940.305 368.07C941.238 366.39 942.518 365.083 944.145 364.15C945.772 363.19 947.638 362.71 949.745 362.71C951.825 362.71 953.612 363.177 955.105 364.11C956.598 365.017 957.732 366.283 958.505 367.91C959.305 369.51 959.705 371.363 959.705 373.47C959.705 373.977 959.532 374.403 959.185 374.75C958.838 375.07 958.398 375.23 957.865 375.23H941.745V372.03H957.745L956.105 373.15C956.078 371.817 955.812 370.63 955.305 369.59C954.798 368.523 954.078 367.683 953.145 367.07C952.212 366.457 951.078 366.15 949.745 366.15C948.225 366.15 946.918 366.483 945.825 367.15C944.758 367.817 943.945 368.737 943.385 369.91C942.825 371.057 942.545 372.363 942.545 373.83C942.545 375.297 942.878 376.603 943.545 377.75C944.212 378.897 945.132 379.803 946.305 380.47C947.478 381.137 948.825 381.47 950.345 381.47C951.172 381.47 952.012 381.323 952.865 381.03C953.745 380.71 954.452 380.35 954.985 379.95C955.385 379.657 955.812 379.51 956.265 379.51C956.745 379.483 957.158 379.617 957.505 379.91C957.958 380.31 958.198 380.75 958.225 381.23C958.252 381.71 958.038 382.123 957.585 382.47C956.678 383.19 955.545 383.777 954.185 384.23C952.852 384.683 951.572 384.91 950.345 384.91ZM971.527 384.71C970.701 384.71 970.061 384.27 969.607 383.39L961.127 365.51C960.914 365.057 960.887 364.617 961.047 364.19C961.234 363.737 961.581 363.39 962.087 363.15C962.541 362.91 962.994 362.87 963.447 363.03C963.927 363.19 964.287 363.497 964.527 363.95L972.447 381.03H970.527L978.367 363.95C978.607 363.497 978.967 363.19 979.447 363.03C979.954 362.87 980.461 362.91 980.967 363.15C981.447 363.363 981.767 363.697 981.927 364.15C982.087 364.603 982.061 365.057 981.847 365.51L973.367 383.39C972.967 384.27 972.354 384.71 971.527 384.71ZM995.54 384.91C993.327 384.91 991.353 384.443 989.62 383.51C987.913 382.55 986.567 381.243 985.58 379.59C984.62 377.91 984.14 375.99 984.14 373.83C984.14 371.643 984.593 369.723 985.5 368.07C986.433 366.39 987.713 365.083 989.34 364.15C990.967 363.19 992.833 362.71 994.94 362.71C997.02 362.71 998.807 363.177 1000.3 364.11C1001.79 365.017 1002.93 366.283 1003.7 367.91C1004.5 369.51 1004.9 371.363 1004.9 373.47C1004.9 373.977 1004.73 374.403 1004.38 374.75C1004.03 375.07 1003.59 375.23 1003.06 375.23H986.94V372.03H1002.94L1001.3 373.15C1001.27 371.817 1001.01 370.63 1000.5 369.59C999.993 368.523 999.273 367.683 998.34 367.07C997.407 366.457 996.273 366.15 994.94 366.15C993.42 366.15 992.113 366.483 991.02 367.15C989.953 367.817 989.14 368.737 988.58 369.91C988.02 371.057 987.74 372.363 987.74 373.83C987.74 375.297 988.073 376.603 988.74 377.75C989.407 378.897 990.327 379.803 991.5 380.47C992.673 381.137 994.02 381.47 995.54 381.47C996.367 381.47 997.207 381.323 998.06 381.03C998.94 380.71 999.647 380.35 1000.18 379.95C1000.58 379.657 1001.01 379.51 1001.46 379.51C1001.94 379.483 1002.35 379.617 1002.7 379.91C1003.15 380.31 1003.39 380.75 1003.42 381.23C1003.45 381.71 1003.23 382.123 1002.78 382.47C1001.87 383.19 1000.74 383.777 999.38 384.23C998.047 384.683 996.767 384.91 995.54 384.91ZM1015.3 384.75C1014.13 384.75 1013.09 384.43 1012.18 383.79C1011.28 383.15 1010.57 382.283 1010.06 381.19C1009.56 380.07 1009.3 378.79 1009.3 377.35V355.51C1009.3 354.923 1009.49 354.443 1009.86 354.07C1010.24 353.697 1010.72 353.51 1011.3 353.51C1011.89 353.51 1012.37 353.697 1012.74 354.07C1013.12 354.443 1013.3 354.923 1013.3 355.51V377.35C1013.3 378.337 1013.49 379.15 1013.86 379.79C1014.24 380.43 1014.72 380.75 1015.3 380.75H1016.3C1016.84 380.75 1017.26 380.937 1017.58 381.31C1017.93 381.683 1018.1 382.163 1018.1 382.75C1018.1 383.337 1017.85 383.817 1017.34 384.19C1016.84 384.563 1016.18 384.75 1015.38 384.75H1015.3ZM1030.81 384.91C1028.65 384.91 1026.74 384.443 1025.09 383.51C1023.43 382.55 1022.13 381.243 1021.17 379.59C1020.23 377.91 1019.77 375.99 1019.77 373.83C1019.77 371.643 1020.23 369.723 1021.17 368.07C1022.13 366.39 1023.43 365.083 1025.09 364.15C1026.74 363.19 1028.65 362.71 1030.81 362.71C1032.94 362.71 1034.83 363.19 1036.49 364.15C1038.14 365.083 1039.43 366.39 1040.37 368.07C1041.33 369.723 1041.81 371.643 1041.81 373.83C1041.81 375.99 1041.34 377.91 1040.41 379.59C1039.47 381.243 1038.18 382.55 1036.53 383.51C1034.87 384.443 1032.97 384.91 1030.81 384.91ZM1030.81 381.31C1032.19 381.31 1033.42 380.99 1034.49 380.35C1035.55 379.71 1036.38 378.83 1036.97 377.71C1037.58 376.59 1037.89 375.297 1037.89 373.83C1037.89 372.363 1037.58 371.07 1036.97 369.95C1036.38 368.803 1035.55 367.91 1034.49 367.27C1033.42 366.63 1032.19 366.31 1030.81 366.31C1029.42 366.31 1028.19 366.63 1027.13 367.27C1026.06 367.91 1025.22 368.803 1024.61 369.95C1023.99 371.07 1023.69 372.363 1023.69 373.83C1023.69 375.297 1023.99 376.59 1024.61 377.71C1025.22 378.83 1026.06 379.71 1027.13 380.35C1028.19 380.99 1029.42 381.31 1030.81 381.31ZM1049.92 394.11C1049.33 394.11 1048.84 393.91 1048.44 393.51C1048.06 393.137 1047.88 392.657 1047.88 392.07V373.83C1047.9 371.723 1048.4 369.83 1049.36 368.15C1050.32 366.47 1051.62 365.15 1053.28 364.19C1054.93 363.203 1056.8 362.71 1058.88 362.71C1060.98 362.71 1062.86 363.203 1064.52 364.19C1066.17 365.15 1067.48 366.47 1068.44 368.15C1069.42 369.83 1069.92 371.723 1069.92 373.83C1069.92 375.937 1069.46 377.83 1068.56 379.51C1067.68 381.163 1066.46 382.483 1064.92 383.47C1063.37 384.43 1061.62 384.91 1059.68 384.91C1058.1 384.91 1056.65 384.59 1055.32 383.95C1054.01 383.283 1052.89 382.39 1051.96 381.27V392.07C1051.96 392.657 1051.77 393.137 1051.4 393.51C1051.02 393.91 1050.53 394.11 1049.92 394.11ZM1058.88 381.31C1060.24 381.31 1061.45 380.99 1062.52 380.35C1063.58 379.683 1064.42 378.79 1065.04 377.67C1065.68 376.523 1066 375.243 1066 373.83C1066 372.39 1065.68 371.11 1065.04 369.99C1064.42 368.843 1063.58 367.95 1062.52 367.31C1061.45 366.643 1060.24 366.31 1058.88 366.31C1057.54 366.31 1056.33 366.643 1055.24 367.31C1054.17 367.95 1053.33 368.843 1052.72 369.99C1052.1 371.11 1051.8 372.39 1051.8 373.83C1051.8 375.243 1052.1 376.523 1052.72 377.67C1053.33 378.79 1054.17 379.683 1055.24 380.35C1056.33 380.99 1057.54 381.31 1058.88 381.31ZM1086.28 384.91C1084.07 384.91 1082.1 384.443 1080.36 383.51C1078.66 382.55 1077.31 381.243 1076.32 379.59C1075.36 377.91 1074.88 375.99 1074.88 373.83C1074.88 371.643 1075.34 369.723 1076.24 368.07C1077.18 366.39 1078.46 365.083 1080.08 364.15C1081.71 363.19 1083.58 362.71 1085.68 362.71C1087.76 362.71 1089.55 363.177 1091.04 364.11C1092.54 365.017 1093.67 366.283 1094.44 367.91C1095.24 369.51 1095.64 371.363 1095.64 373.47C1095.64 373.977 1095.47 374.403 1095.12 374.75C1094.78 375.07 1094.34 375.23 1093.8 375.23H1077.68V372.03H1093.68L1092.04 373.15C1092.02 371.817 1091.75 370.63 1091.24 369.59C1090.74 368.523 1090.02 367.683 1089.08 367.07C1088.15 366.457 1087.02 366.15 1085.68 366.15C1084.16 366.15 1082.86 366.483 1081.76 367.15C1080.7 367.817 1079.88 368.737 1079.32 369.91C1078.76 371.057 1078.48 372.363 1078.48 373.83C1078.48 375.297 1078.82 376.603 1079.48 377.75C1080.15 378.897 1081.07 379.803 1082.24 380.47C1083.42 381.137 1084.76 381.47 1086.28 381.47C1087.11 381.47 1087.95 381.323 1088.8 381.03C1089.68 380.71 1090.39 380.35 1090.92 379.95C1091.32 379.657 1091.75 379.51 1092.2 379.51C1092.68 379.483 1093.1 379.617 1093.44 379.91C1093.9 380.31 1094.14 380.75 1094.16 381.23C1094.19 381.71 1093.98 382.123 1093.52 382.47C1092.62 383.19 1091.48 383.777 1090.12 384.23C1088.79 384.683 1087.51 384.91 1086.28 384.91ZM1102.81 371.07C1102.81 369.47 1103.19 368.043 1103.97 366.79C1104.77 365.51 1105.83 364.497 1107.17 363.75C1108.5 363.003 1109.97 362.63 1111.57 362.63C1113.17 362.63 1114.35 362.897 1115.13 363.43C1115.93 363.937 1116.23 364.55 1116.05 365.27C1115.97 365.643 1115.81 365.937 1115.57 366.15C1115.35 366.337 1115.1 366.457 1114.81 366.51C1114.51 366.563 1114.19 366.55 1113.85 366.47C1112.14 366.123 1110.61 366.097 1109.25 366.39C1107.89 366.683 1106.81 367.23 1106.01 368.03C1105.23 368.83 1104.85 369.843 1104.85 371.07H1102.81ZM1102.85 384.75C1102.21 384.75 1101.71 384.59 1101.37 384.27C1101.02 383.923 1100.85 383.417 1100.85 382.75V364.87C1100.85 364.23 1101.02 363.737 1101.37 363.39C1101.71 363.043 1102.21 362.87 1102.85 362.87C1103.51 362.87 1104.01 363.043 1104.33 363.39C1104.67 363.71 1104.85 364.203 1104.85 364.87V382.75C1104.85 383.39 1104.67 383.883 1104.33 384.23C1104.01 384.577 1103.51 384.75 1102.85 384.75Z" fill="#1A1A1A"/>
<path d="M278.002 305.335C273.906 305.335 270.002 304.695 266.29 303.415C262.578 302.135 259.346 300.343 256.594 298.039C253.842 295.735 251.826 293.079 250.546 290.071C249.906 288.727 249.906 287.479 250.546 286.327C251.25 285.175 252.402 284.439 254.002 284.119C255.154 283.863 256.274 284.055 257.362 284.695C258.514 285.271 259.378 286.167 259.954 287.383C260.722 288.983 261.97 290.455 263.698 291.799C265.49 293.143 267.634 294.231 270.13 295.063C272.626 295.895 275.25 296.311 278.002 296.311C281.074 296.311 283.89 295.831 286.45 294.871C289.074 293.911 291.186 292.535 292.786 290.743C294.386 288.887 295.186 286.615 295.186 283.927C295.186 280.535 293.842 277.495 291.154 274.807C288.53 272.119 284.178 270.455 278.098 269.815C270.162 269.047 263.922 266.711 259.378 262.807C254.834 258.903 252.562 254.071 252.562 248.311C252.562 244.087 253.746 240.503 256.114 237.559C258.482 234.615 261.682 232.375 265.714 230.839C269.81 229.303 274.354 228.535 279.346 228.535C283.25 228.535 286.642 229.079 289.522 230.167C292.466 231.255 295.026 232.759 297.202 234.679C299.378 236.599 301.266 238.871 302.866 241.495C303.762 242.903 304.114 244.247 303.922 245.527C303.794 246.743 303.186 247.703 302.098 248.407C300.882 249.175 299.57 249.335 298.162 248.887C296.754 248.439 295.698 247.607 294.994 246.391C293.97 244.535 292.722 242.967 291.25 241.687C289.778 240.407 288.05 239.415 286.066 238.711C284.082 237.943 281.746 237.559 279.058 237.559C274.322 237.495 270.354 238.391 267.154 240.247C263.954 242.039 262.354 244.823 262.354 248.599C262.354 250.519 262.834 252.375 263.794 254.167C264.818 255.895 266.642 257.399 269.266 258.679C271.954 259.959 275.794 260.855 280.786 261.367C288.402 262.135 294.322 264.471 298.546 268.375C302.834 272.215 304.978 277.303 304.978 283.639C304.978 287.287 304.21 290.455 302.674 293.143C301.202 295.831 299.186 298.103 296.626 299.959C294.13 301.751 291.25 303.095 287.986 303.991C284.786 304.887 281.458 305.335 278.002 305.335ZM344 304.759C338.688 304.759 333.952 303.639 329.792 301.399C325.696 299.095 322.464 295.959 320.096 291.991C317.792 287.959 316.64 283.351 316.64 278.167C316.64 272.919 317.728 268.311 319.904 264.343C322.144 260.311 325.216 257.175 329.12 254.935C333.024 252.631 337.504 251.479 342.56 251.479C347.552 251.479 351.84 252.599 355.424 254.839C359.008 257.015 361.728 260.055 363.583 263.959C365.504 267.799 366.464 272.247 366.464 277.303C366.464 278.519 366.048 279.543 365.216 280.375C364.384 281.143 363.328 281.527 362.048 281.527H323.359V273.847H361.76L357.824 276.535C357.76 273.335 357.12 270.487 355.904 267.991C354.688 265.431 352.96 263.415 350.72 261.943C348.48 260.471 345.76 259.735 342.56 259.735C338.912 259.735 335.776 260.535 333.152 262.135C330.592 263.735 328.64 265.943 327.296 268.759C325.952 271.511 325.28 274.647 325.28 278.167C325.28 281.687 326.08 284.823 327.68 287.575C329.28 290.327 331.488 292.503 334.304 294.103C337.12 295.703 340.352 296.503 344 296.503C345.984 296.503 348 296.151 350.048 295.447C352.16 294.679 353.856 293.815 355.136 292.855C356.096 292.151 357.12 291.799 358.208 291.799C359.36 291.735 360.352 292.055 361.184 292.759C362.272 293.719 362.848 294.775 362.912 295.927C362.976 297.079 362.464 298.071 361.375 298.903C359.2 300.631 356.48 302.039 353.216 303.127C350.016 304.215 346.944 304.759 344 304.759ZM405.353 304.759C400.361 304.759 395.881 303.607 391.913 301.303C387.945 298.935 384.809 295.735 382.505 291.703C380.201 287.671 379.017 283.127 378.953 278.071V234.295C378.953 232.823 379.401 231.639 380.297 230.743C381.257 229.847 382.441 229.399 383.849 229.399C385.321 229.399 386.505 229.847 387.401 230.743C388.297 231.639 388.745 232.823 388.745 234.295V260.215C390.985 257.527 393.673 255.415 396.809 253.879C400.009 252.279 403.497 251.479 407.273 251.479C411.945 251.479 416.137 252.663 419.849 255.031C423.561 257.335 426.473 260.503 428.585 264.535C430.761 268.503 431.849 273.015 431.849 278.071C431.849 283.127 430.665 287.671 428.297 291.703C425.993 295.735 422.857 298.935 418.889 301.303C414.921 303.607 410.409 304.759 405.353 304.759ZM405.353 296.119C408.617 296.119 411.529 295.351 414.089 293.815C416.649 292.215 418.665 290.039 420.137 287.287C421.673 284.535 422.441 281.463 422.441 278.071C422.441 274.615 421.673 271.543 420.137 268.855C418.665 266.167 416.649 264.055 414.089 262.519C411.529 260.919 408.617 260.119 405.353 260.119C402.153 260.119 399.241 260.919 396.617 262.519C394.057 264.055 392.041 266.167 390.569 268.855C389.097 271.543 388.361 274.615 388.361 278.071C388.361 281.463 389.097 284.535 390.569 287.287C392.041 290.039 394.057 292.215 396.617 293.815C399.241 295.351 402.153 296.119 405.353 296.119ZM468.341 304.759C463.669 304.759 459.477 303.607 455.765 301.303C452.053 298.935 449.109 295.767 446.933 291.799C444.821 287.767 443.765 283.223 443.765 278.167C443.765 273.111 444.917 268.567 447.221 264.535C449.589 260.503 452.757 257.335 456.725 255.031C460.757 252.663 465.269 251.479 470.261 251.479C475.253 251.479 479.733 252.663 483.701 255.031C487.669 257.335 490.805 260.503 493.109 264.535C495.477 268.567 496.661 273.111 496.661 278.167H492.917C492.917 283.223 491.829 287.767 489.653 291.799C487.541 295.767 484.629 298.935 480.917 301.303C477.205 303.607 473.013 304.759 468.341 304.759ZM470.261 296.119C473.525 296.119 476.437 295.351 478.997 293.815C481.557 292.215 483.573 290.071 485.045 287.383C486.517 284.631 487.253 281.559 487.253 278.167C487.253 274.711 486.517 271.639 485.045 268.951C483.573 266.199 481.557 264.055 478.997 262.519C476.437 260.919 473.525 260.119 470.261 260.119C467.061 260.119 464.149 260.919 461.525 262.519C458.965 264.055 456.917 266.199 455.381 268.951C453.909 271.639 453.173 274.711 453.173 278.167C453.173 281.559 453.909 284.631 455.381 287.383C456.917 290.071 458.965 292.215 461.525 293.815C464.149 295.351 467.061 296.119 470.261 296.119ZM491.765 304.471C490.357 304.471 489.173 304.023 488.213 303.127C487.317 302.167 486.869 300.983 486.869 299.575V284.887L488.693 274.711L496.661 278.167V299.575C496.661 300.983 496.181 302.167 495.221 303.127C494.325 304.023 493.173 304.471 491.765 304.471ZM530.338 304.759C525.858 304.759 521.698 304.087 517.858 302.743C514.082 301.335 511.138 299.575 509.026 297.463C508.066 296.439 507.65 295.287 507.778 294.007C507.97 292.663 508.61 291.575 509.698 290.743C510.978 289.719 512.226 289.303 513.442 289.495C514.722 289.623 515.81 290.167 516.706 291.127C517.794 292.343 519.522 293.495 521.89 294.583C524.322 295.607 527.01 296.119 529.954 296.119C533.666 296.119 536.482 295.511 538.402 294.295C540.386 293.079 541.41 291.511 541.474 289.591C541.538 287.671 540.61 286.007 538.69 284.599C536.834 283.191 533.41 282.039 528.418 281.143C521.954 279.863 517.25 277.943 514.306 275.383C511.426 272.823 509.986 269.687 509.986 265.975C509.986 262.711 510.946 260.023 512.866 257.911C514.786 255.735 517.25 254.135 520.258 253.111C523.266 252.023 526.402 251.479 529.666 251.479C533.89 251.479 537.634 252.151 540.898 253.495C544.162 254.839 546.754 256.695 548.674 259.063C549.57 260.087 549.986 261.175 549.922 262.327C549.858 263.415 549.314 264.343 548.29 265.111C547.266 265.815 546.05 266.039 544.642 265.783C543.234 265.527 542.05 264.951 541.09 264.055C539.49 262.519 537.762 261.463 535.906 260.887C534.05 260.311 531.906 260.023 529.474 260.023C526.658 260.023 524.258 260.503 522.274 261.463C520.354 262.423 519.394 263.831 519.394 265.687C519.394 266.839 519.682 267.895 520.258 268.855C520.898 269.751 522.114 270.583 523.906 271.351C525.698 272.055 528.322 272.759 531.778 273.463C536.578 274.423 540.354 275.639 543.106 277.111C545.922 278.583 547.938 280.311 549.154 282.295C550.37 284.215 550.978 286.455 550.978 289.015C550.978 291.959 550.178 294.615 548.578 296.983C547.042 299.351 544.738 301.239 541.666 302.647C538.658 304.055 534.882 304.759 530.338 304.759ZM582.463 304.375C579.263 304.375 576.383 303.575 573.823 301.975C571.263 300.311 569.247 298.071 567.775 295.255C566.303 292.439 565.567 289.271 565.567 285.751V239.959C565.567 238.551 566.015 237.399 566.911 236.503C567.807 235.607 568.959 235.159 570.367 235.159C571.775 235.159 572.927 235.607 573.823 236.503C574.719 237.399 575.167 238.551 575.167 239.959V285.751C575.167 288.311 575.871 290.455 577.279 292.183C578.687 293.911 580.415 294.775 582.463 294.775H585.727C586.879 294.775 587.839 295.223 588.607 296.119C589.439 297.015 589.855 298.167 589.855 299.575C589.855 300.983 589.311 302.135 588.223 303.031C587.199 303.927 585.855 304.375 584.191 304.375H582.463ZM561.151 262.039C559.807 262.039 558.719 261.655 557.887 260.887C557.055 260.119 556.639 259.159 556.639 258.007C556.639 256.727 557.055 255.703 557.887 254.935C558.719 254.167 559.807 253.783 561.151 253.783H583.327C584.671 253.783 585.759 254.167 586.591 254.935C587.423 255.703 587.839 256.727 587.839 258.007C587.839 259.159 587.423 260.119 586.591 260.887C585.759 261.655 584.671 262.039 583.327 262.039H561.151ZM607.746 304.375C606.338 304.375 605.154 303.927 604.194 303.031C603.298 302.071 602.85 300.887 602.85 299.479V256.759C602.85 255.287 603.298 254.103 604.194 253.207C605.154 252.311 606.338 251.863 607.746 251.863C609.218 251.863 610.402 252.311 611.298 253.207C612.194 254.103 612.642 255.287 612.642 256.759V299.479C612.642 300.887 612.194 302.071 611.298 303.031C610.402 303.927 609.218 304.375 607.746 304.375ZM607.746 243.319C606.018 243.319 604.514 242.711 603.234 241.495C602.018 240.215 601.41 238.711 601.41 236.983C601.41 235.255 602.018 233.783 603.234 232.567C604.514 231.287 606.018 230.647 607.746 230.647C609.474 230.647 610.946 231.287 612.162 232.567C613.442 233.783 614.082 235.255 614.082 236.983C614.082 238.711 613.442 240.215 612.162 241.495C610.946 242.711 609.474 243.319 607.746 243.319ZM652.747 304.759C648.075 304.759 643.883 303.607 640.171 301.303C636.459 298.935 633.515 295.767 631.339 291.799C629.227 287.767 628.171 283.223 628.171 278.167C628.171 273.111 629.323 268.567 631.627 264.535C633.995 260.503 637.163 257.335 641.131 255.031C645.163 252.663 649.675 251.479 654.667 251.479C659.659 251.479 664.139 252.663 668.107 255.031C672.075 257.335 675.211 260.503 677.515 264.535C679.883 268.567 681.067 273.111 681.067 278.167H677.323C677.323 283.223 676.235 287.767 674.059 291.799C671.947 295.767 669.035 298.935 665.323 301.303C661.611 303.607 657.419 304.759 652.747 304.759ZM654.667 296.119C657.931 296.119 660.843 295.351 663.403 293.815C665.963 292.215 667.979 290.071 669.451 287.383C670.923 284.631 671.659 281.559 671.659 278.167C671.659 274.711 670.923 271.639 669.451 268.951C667.979 266.199 665.963 264.055 663.403 262.519C660.843 260.919 657.931 260.119 654.667 260.119C651.467 260.119 648.555 260.919 645.931 262.519C643.371 264.055 641.323 266.199 639.787 268.951C638.315 271.639 637.579 274.711 637.579 278.167C637.579 281.559 638.315 284.631 639.787 287.383C641.323 290.071 643.371 292.215 645.931 293.815C648.555 295.351 651.467 296.119 654.667 296.119ZM676.171 304.471C674.763 304.471 673.579 304.023 672.619 303.127C671.723 302.167 671.275 300.983 671.275 299.575V284.887L673.099 274.711L681.067 278.167V299.575C681.067 300.983 680.587 302.167 679.627 303.127C678.731 304.023 677.579 304.471 676.171 304.471ZM739.992 304.471C738.584 304.471 737.4 304.023 736.44 303.127C735.544 302.167 735.096 300.983 735.096 299.575V275.959C735.096 272.311 734.424 269.335 733.08 267.031C731.736 264.727 729.912 263.031 727.608 261.943C725.368 260.791 722.776 260.215 719.832 260.215C717.144 260.215 714.712 260.759 712.536 261.847C710.36 262.935 708.632 264.407 707.352 266.263C706.072 268.055 705.432 270.135 705.432 272.503H699.384C699.384 268.471 700.344 264.887 702.264 261.751C704.248 258.551 706.936 256.023 710.328 254.167C713.72 252.311 717.528 251.383 721.752 251.383C726.168 251.383 730.104 252.343 733.56 254.263C737.08 256.119 739.832 258.871 741.816 262.519C743.864 266.167 744.888 270.647 744.888 275.959V299.575C744.888 300.983 744.408 302.167 743.448 303.127C742.552 304.023 741.4 304.471 739.992 304.471ZM700.536 304.471C699.128 304.471 697.944 304.023 696.984 303.127C696.088 302.167 695.64 300.983 695.64 299.575V256.759C695.64 255.287 696.088 254.103 696.984 253.207C697.944 252.311 699.128 251.863 700.536 251.863C702.008 251.863 703.192 252.311 704.088 253.207C704.984 254.103 705.432 255.287 705.432 256.759V299.575C705.432 300.983 704.984 302.167 704.088 303.127C703.192 304.023 702.008 304.471 700.536 304.471ZM813.971 305.335C809.875 305.335 805.971 304.695 802.259 303.415C798.547 302.135 795.315 300.343 792.562 298.039C789.811 295.735 787.795 293.079 786.515 290.071C785.875 288.727 785.875 287.479 786.515 286.327C787.219 285.175 788.371 284.439 789.971 284.119C791.123 283.863 792.243 284.055 793.331 284.695C794.483 285.271 795.347 286.167 795.923 287.383C796.691 288.983 797.939 290.455 799.667 291.799C801.459 293.143 803.603 294.231 806.099 295.063C808.595 295.895 811.219 296.311 813.971 296.311C817.043 296.311 819.859 295.831 822.419 294.871C825.043 293.911 827.155 292.535 828.755 290.743C830.355 288.887 831.155 286.615 831.155 283.927C831.155 280.535 829.811 277.495 827.123 274.807C824.499 272.119 820.147 270.455 814.067 269.815C806.131 269.047 799.891 266.711 795.347 262.807C790.803 258.903 788.531 254.071 788.531 248.311C788.531 244.087 789.715 240.503 792.083 237.559C794.451 234.615 797.651 232.375 801.683 230.839C805.779 229.303 810.323 228.535 815.315 228.535C819.219 228.535 822.611 229.079 825.491 230.167C828.435 231.255 830.995 232.759 833.171 234.679C835.347 236.599 837.235 238.871 838.835 241.495C839.731 242.903 840.083 244.247 839.891 245.527C839.763 246.743 839.155 247.703 838.067 248.407C836.851 249.175 835.539 249.335 834.131 248.887C832.723 248.439 831.667 247.607 830.963 246.391C829.939 244.535 828.691 242.967 827.219 241.687C825.747 240.407 824.019 239.415 822.035 238.711C820.051 237.943 817.715 237.559 815.027 237.559C810.291 237.495 806.323 238.391 803.123 240.247C799.923 242.039 798.323 244.823 798.323 248.599C798.323 250.519 798.803 252.375 799.763 254.167C800.787 255.895 802.611 257.399 805.234 258.679C807.923 259.959 811.763 260.855 816.755 261.367C824.371 262.135 830.291 264.471 834.515 268.375C838.803 272.215 840.947 277.303 840.947 283.639C840.947 287.287 840.179 290.455 838.643 293.143C837.171 295.831 835.155 298.103 832.595 299.959C830.099 301.751 827.219 303.095 823.955 303.991C820.755 304.887 817.427 305.335 813.971 305.335ZM879.104 304.759C873.984 304.759 869.408 303.607 865.376 301.303C861.408 298.935 858.272 295.767 855.968 291.799C853.728 287.767 852.608 283.223 852.608 278.167C852.608 272.983 853.728 268.375 855.968 264.343C858.208 260.311 861.28 257.175 865.184 254.935C869.088 252.631 873.568 251.479 878.624 251.479C882.4 251.479 885.856 252.215 888.992 253.687C892.128 255.095 894.944 257.239 897.44 260.119C898.336 261.143 898.656 262.199 898.4 263.287C898.144 264.375 897.44 265.335 896.288 266.167C895.392 266.807 894.4 267.031 893.312 266.839C892.224 266.583 891.232 266.007 890.336 265.111C887.2 261.783 883.296 260.119 878.624 260.119C875.36 260.119 872.48 260.887 869.984 262.423C867.488 263.895 865.536 265.975 864.128 268.663C862.72 271.351 862.016 274.519 862.016 278.167C862.016 281.623 862.72 284.695 864.128 287.383C865.6 290.071 867.616 292.215 870.176 293.815C872.736 295.351 875.712 296.119 879.104 296.119C881.344 296.119 883.296 295.863 884.96 295.351C886.688 294.775 888.256 293.911 889.664 292.759C890.688 291.927 891.744 291.479 892.832 291.415C893.92 291.287 894.88 291.575 895.712 292.279C896.8 293.175 897.408 294.199 897.536 295.351C897.664 296.439 897.28 297.431 896.384 298.327C891.776 302.615 886.016 304.759 879.104 304.759ZM917.849 285.271C916.441 285.271 915.257 284.823 914.297 283.927C913.401 282.967 912.953 281.783 912.953 280.375V234.295C912.953 232.823 913.401 231.639 914.297 230.743C915.257 229.847 916.441 229.399 917.849 229.399C919.321 229.399 920.505 229.847 921.401 230.743C922.297 231.639 922.745 232.823 922.745 234.295V280.375C922.745 281.783 922.297 282.967 921.401 283.927C920.505 284.823 919.321 285.271 917.849 285.271ZM957.305 304.471C955.897 304.471 954.713 304.023 953.753 303.127C952.857 302.167 952.409 300.983 952.409 299.575V275.959C952.409 272.311 951.737 269.335 950.393 267.031C949.049 264.727 947.225 263.031 944.921 261.943C942.681 260.791 940.089 260.215 937.145 260.215C934.457 260.215 932.025 260.759 929.849 261.847C927.673 262.935 925.945 264.407 924.665 266.263C923.385 268.055 922.745 270.135 922.745 272.503H916.697C916.697 268.471 917.657 264.887 919.577 261.751C921.561 258.551 924.249 256.023 927.641 254.167C931.033 252.311 934.841 251.383 939.065 251.383C943.481 251.383 947.417 252.343 950.873 254.263C954.393 256.119 957.145 258.871 959.129 262.519C961.177 266.167 962.201 270.647 962.201 275.959V299.575C962.201 300.983 961.721 302.167 960.76 303.127C959.865 304.023 958.713 304.471 957.305 304.471ZM917.849 304.471C916.441 304.471 915.257 304.023 914.297 303.127C913.401 302.167 912.953 300.983 912.953 299.575V256.759C912.953 255.287 913.401 254.103 914.297 253.207C915.257 252.311 916.441 251.863 917.849 251.863C919.321 251.863 920.505 252.311 921.401 253.207C922.297 254.103 922.745 255.287 922.745 256.759V299.575C922.745 300.983 922.297 302.167 921.401 303.127C920.505 304.023 919.321 304.471 917.849 304.471ZM1003.16 304.759C997.844 304.759 993.108 303.639 988.948 301.399C984.852 299.095 981.62 295.959 979.252 291.991C976.948 287.959 975.796 283.351 975.796 278.167C975.796 272.919 976.884 268.311 979.06 264.343C981.3 260.311 984.372 257.175 988.276 254.935C992.18 252.631 996.66 251.479 1001.72 251.479C1006.71 251.479 1011 252.599 1014.58 254.839C1018.16 257.015 1020.88 260.055 1022.74 263.959C1024.66 267.799 1025.62 272.247 1025.62 277.303C1025.62 278.519 1025.2 279.543 1024.37 280.375C1023.54 281.143 1022.48 281.527 1021.2 281.527H982.516V273.847H1020.92L1016.98 276.535C1016.92 273.335 1016.28 270.487 1015.06 267.991C1013.84 265.431 1012.12 263.415 1009.88 261.943C1007.64 260.471 1004.92 259.735 1001.72 259.735C998.068 259.735 994.932 260.535 992.308 262.135C989.748 263.735 987.796 265.943 986.452 268.759C985.108 271.511 984.436 274.647 984.436 278.167C984.436 281.687 985.236 284.823 986.836 287.575C988.436 290.327 990.644 292.503 993.46 294.103C996.276 295.703 999.508 296.503 1003.16 296.503C1005.14 296.503 1007.16 296.151 1009.2 295.447C1011.32 294.679 1013.01 293.815 1014.29 292.855C1015.25 292.151 1016.28 291.799 1017.36 291.799C1018.52 291.735 1019.51 292.055 1020.34 292.759C1021.43 293.719 1022 294.775 1022.07 295.927C1022.13 297.079 1021.62 298.071 1020.53 298.903C1018.36 300.631 1015.64 302.039 1012.37 303.127C1009.17 304.215 1006.1 304.759 1003.16 304.759ZM1042.81 271.543C1042.81 267.703 1043.74 264.279 1045.6 261.271C1047.52 258.199 1050.08 255.767 1053.28 253.975C1056.48 252.183 1060 251.287 1063.84 251.287C1067.68 251.287 1070.52 251.927 1072.38 253.207C1074.3 254.423 1075.04 255.895 1074.59 257.623C1074.4 258.519 1074.01 259.223 1073.44 259.735C1072.92 260.183 1072.32 260.471 1071.61 260.599C1070.91 260.727 1070.14 260.695 1069.31 260.503C1065.21 259.671 1061.53 259.607 1058.27 260.311C1055 261.015 1052.41 262.327 1050.49 264.247C1048.64 266.167 1047.71 268.599 1047.71 271.543H1042.81ZM1042.91 304.375C1041.37 304.375 1040.19 303.991 1039.36 303.223C1038.52 302.391 1038.11 301.175 1038.11 299.575V256.663C1038.11 255.127 1038.52 253.943 1039.36 253.111C1040.19 252.279 1041.37 251.863 1042.91 251.863C1044.51 251.863 1045.69 252.279 1046.46 253.111C1047.29 253.879 1047.71 255.063 1047.71 256.663V299.575C1047.71 301.111 1047.29 302.295 1046.46 303.127C1045.69 303.959 1044.51 304.375 1042.91 304.375ZM1111.2 304.759C1106.2 304.759 1101.72 303.607 1097.76 301.303C1093.79 298.935 1090.65 295.735 1088.35 291.703C1086.04 287.671 1084.86 283.127 1084.8 278.071V234.295C1084.8 232.823 1085.24 231.639 1086.14 230.743C1087.1 229.847 1088.28 229.399 1089.69 229.399C1091.16 229.399 1092.35 229.847 1093.24 230.743C1094.14 231.639 1094.59 232.823 1094.59 234.295V260.215C1096.83 257.527 1099.52 255.415 1102.65 253.879C1105.85 252.279 1109.34 251.479 1113.12 251.479C1117.79 251.479 1121.98 252.663 1125.69 255.031C1129.4 257.335 1132.32 260.503 1134.43 264.535C1136.6 268.503 1137.69 273.015 1137.69 278.071C1137.69 283.127 1136.51 287.671 1134.14 291.703C1131.84 295.735 1128.7 298.935 1124.73 301.303C1120.76 303.607 1116.25 304.759 1111.2 304.759ZM1111.2 296.119C1114.46 296.119 1117.37 295.351 1119.93 293.815C1122.49 292.215 1124.51 290.039 1125.98 287.287C1127.52 284.535 1128.28 281.463 1128.28 278.071C1128.28 274.615 1127.52 271.543 1125.98 268.855C1124.51 266.167 1122.49 264.055 1119.93 262.519C1117.37 260.919 1114.46 260.119 1111.2 260.119C1108 260.119 1105.08 260.919 1102.46 262.519C1099.9 264.055 1097.88 266.167 1096.41 268.855C1094.94 271.543 1094.2 274.615 1094.2 278.071C1094.2 281.463 1094.94 284.535 1096.41 287.287C1097.88 290.039 1099.9 292.215 1102.46 293.815C1105.08 295.351 1108 296.119 1111.2 296.119ZM1176.97 304.759C1171.66 304.759 1166.92 303.639 1162.76 301.399C1158.66 299.095 1155.43 295.959 1153.06 291.991C1150.76 287.959 1149.61 283.351 1149.61 278.167C1149.61 272.919 1150.7 268.311 1152.87 264.343C1155.11 260.311 1158.18 257.175 1162.09 254.935C1165.99 252.631 1170.47 251.479 1175.53 251.479C1180.52 251.479 1184.81 252.599 1188.39 254.839C1191.98 257.015 1194.7 260.055 1196.55 263.959C1198.47 267.799 1199.43 272.247 1199.43 277.303C1199.43 278.519 1199.02 279.543 1198.18 280.375C1197.35 281.143 1196.3 281.527 1195.02 281.527H1156.33V273.847H1194.73L1190.79 276.535C1190.73 273.335 1190.09 270.487 1188.87 267.991C1187.66 265.431 1185.93 263.415 1183.69 261.943C1181.45 260.471 1178.73 259.735 1175.53 259.735C1171.88 259.735 1168.74 260.535 1166.12 262.135C1163.56 263.735 1161.61 265.943 1160.26 268.759C1158.92 271.511 1158.25 274.647 1158.25 278.167C1158.25 281.687 1159.05 284.823 1160.65 287.575C1162.25 290.327 1164.46 292.503 1167.27 294.103C1170.09 295.703 1173.32 296.503 1176.97 296.503C1178.95 296.503 1180.97 296.151 1183.02 295.447C1185.13 294.679 1186.82 293.815 1188.1 292.855C1189.06 292.151 1190.09 291.799 1191.18 291.799C1192.33 291.735 1193.32 292.055 1194.15 292.759C1195.24 293.719 1195.82 294.775 1195.88 295.927C1195.94 297.079 1195.43 298.071 1194.34 298.903C1192.17 300.631 1189.45 302.039 1186.18 303.127C1182.98 304.215 1179.91 304.759 1176.97 304.759ZM1231.03 304.759C1226.55 304.759 1222.39 304.087 1218.55 302.743C1214.77 301.335 1211.83 299.575 1209.71 297.463C1208.75 296.439 1208.34 295.287 1208.47 294.007C1208.66 292.663 1209.3 291.575 1210.39 290.743C1211.67 289.719 1212.91 289.303 1214.13 289.495C1215.41 289.623 1216.5 290.167 1217.39 291.127C1218.48 292.343 1220.21 293.495 1222.58 294.583C1225.01 295.607 1227.7 296.119 1230.64 296.119C1234.35 296.119 1237.17 295.511 1239.09 294.295C1241.07 293.079 1242.1 291.511 1242.16 289.591C1242.23 287.671 1241.3 286.007 1239.38 284.599C1237.52 283.191 1234.1 282.039 1229.11 281.143C1222.64 279.863 1217.94 277.943 1214.99 275.383C1212.11 272.823 1210.67 269.687 1210.67 265.975C1210.67 262.711 1211.63 260.023 1213.55 257.911C1215.47 255.735 1217.94 254.135 1220.95 253.111C1223.95 252.023 1227.09 251.479 1230.35 251.479C1234.58 251.479 1238.32 252.151 1241.59 253.495C1244.85 254.839 1247.44 256.695 1249.36 259.063C1250.26 260.087 1250.67 261.175 1250.61 262.327C1250.55 263.415 1250 264.343 1248.98 265.111C1247.95 265.815 1246.74 266.039 1245.33 265.783C1243.92 265.527 1242.74 264.951 1241.78 264.055C1240.18 262.519 1238.45 261.463 1236.59 260.887C1234.74 260.311 1232.59 260.023 1230.16 260.023C1227.35 260.023 1224.95 260.503 1222.96 261.463C1221.04 262.423 1220.08 263.831 1220.08 265.687C1220.08 266.839 1220.37 267.895 1220.95 268.855C1221.59 269.751 1222.8 270.583 1224.59 271.351C1226.39 272.055 1229.01 272.759 1232.47 273.463C1237.27 274.423 1241.04 275.639 1243.79 277.111C1246.61 278.583 1248.63 280.311 1249.84 282.295C1251.06 284.215 1251.67 286.455 1251.67 289.015C1251.67 291.959 1250.87 294.615 1249.27 296.983C1247.73 299.351 1245.43 301.239 1242.35 302.647C1239.35 304.055 1235.57 304.759 1231.03 304.759Z" fill="black"/>
<g clip-path="url(#clip0_11_52)">
<path d="M748.823 110C748.338 110 747.971 110.004 747.837 110.018C747.695 110.033 747.243 110.076 746.837 110.109C737.457 110.954 728.671 116.014 723.107 123.792C720.008 128.116 718.027 133.021 717.278 138.217C717.014 140.031 716.981 140.566 716.981 143.025C716.981 145.485 717.014 146.02 717.278 147.834C719.072 160.233 727.897 170.65 739.865 174.509C742.008 175.2 744.268 175.671 746.837 175.955C747.837 176.065 752.162 176.065 753.163 175.955C757.597 175.465 761.355 174.368 765.06 172.476C765.628 172.186 765.738 172.108 765.66 172.044C765.609 172.005 763.187 168.759 760.283 164.834L755.003 157.702L748.386 147.911C744.745 142.528 741.75 138.127 741.724 138.127C741.698 138.12 741.673 142.471 741.659 147.782C741.641 157.083 741.634 157.457 741.517 157.677C741.35 157.993 741.22 158.122 740.95 158.264C740.743 158.367 740.562 158.386 739.588 158.386H738.47L738.174 158.199C737.99 158.084 737.84 157.921 737.741 157.728L737.606 157.438L737.62 144.497L737.639 131.55L737.838 131.298C737.942 131.162 738.161 130.988 738.316 130.905C738.581 130.775 738.684 130.762 739.801 130.762C741.118 130.762 741.337 130.814 741.679 131.188C741.776 131.292 745.359 136.688 749.645 143.187C753.985 149.766 758.327 156.342 762.672 162.917L767.901 170.837L768.165 170.663C770.509 169.14 772.987 166.971 774.949 164.712C779.126 159.916 781.818 154.069 782.722 147.834C782.986 146.02 783.018 145.484 783.018 143.025C783.018 140.566 782.985 140.031 782.722 138.217C780.927 125.818 772.103 115.401 760.135 111.542C758.024 110.857 755.777 110.386 753.26 110.102C752.795 110.054 750.278 110.001 748.823 110ZM760.018 129.858C760.974 129.858 761.141 129.873 761.354 129.987C761.664 130.142 761.916 130.439 762.006 130.749C762.058 130.917 762.071 134.506 762.058 142.593L762.039 154.197L759.993 151.061L757.94 147.924V139.488C757.94 134.034 757.966 130.968 758.005 130.819C758.108 130.458 758.334 130.174 758.644 130.006C758.908 129.87 759.004 129.858 760.018 129.858Z" fill="#1A1A1A"/>
</g>
<g clip-path="url(#clip1_11_52)">
<path d="M400 110H466.038V176.038H400V110ZM460.628 160.288C460.147 157.275 458.185 154.743 452.365 152.382C450.34 151.433 448.089 150.773 447.421 149.246C447.17 148.338 447.132 147.842 447.294 147.306C447.707 145.528 449.812 144.994 451.463 145.49C452.536 145.82 453.526 146.645 454.148 147.966C456.993 146.106 456.993 146.106 458.977 144.871C458.234 143.715 457.866 143.217 457.365 142.724C455.631 140.785 453.323 139.794 449.567 139.879L447.627 140.124C445.767 140.578 443.995 141.569 442.922 142.89C439.785 146.442 440.69 152.633 444.487 155.192C448.243 157.998 453.735 158.615 454.437 161.259C455.097 164.478 452.043 165.51 449.028 165.139C446.796 164.643 445.561 163.526 444.199 161.463L439.163 164.355C439.741 165.675 440.401 166.25 441.392 167.406C446.18 172.238 458.149 171.99 460.298 164.643C460.378 164.396 460.958 162.704 460.502 160.103L460.628 160.288ZM435.911 140.353H429.725C429.725 145.685 429.7 150.985 429.7 156.325C429.7 159.715 429.874 162.827 429.321 163.785C428.413 165.681 426.074 165.439 425.012 165.106C423.922 164.566 423.369 163.824 422.728 162.753C422.555 162.464 422.425 162.214 422.379 162.214L417.357 165.309C418.196 167.043 419.421 168.534 421 169.483C423.353 170.887 426.514 171.341 429.824 170.598C431.979 169.976 433.836 168.697 434.807 166.715C436.211 164.156 435.914 161.02 435.9 157.509C435.933 151.857 435.9 146.202 435.9 140.507L435.911 140.353Z" fill="#1A1A1A"/>
</g>
<g clip-path="url(#clip2_11_52)">
<path d="M650.476 143.03C650.476 144.661 649.828 146.226 648.675 147.379C647.521 148.533 645.957 149.182 644.326 149.182C642.694 149.182 641.129 148.534 639.975 147.38C638.822 146.227 638.173 144.662 638.173 143.03C638.173 141.399 638.821 139.834 639.974 138.68C641.128 137.527 642.692 136.878 644.323 136.877C645.955 136.877 647.52 137.526 648.674 138.679C649.827 139.833 650.476 141.398 650.476 143.03ZM657.762 113.616C654.058 113.616 649.213 116.257 644.312 120.83C639.414 116.282 634.566 113.671 630.865 113.671C629.737 113.671 628.711 113.926 627.822 114.436C624.039 116.618 623.191 123.417 625.145 131.949C616.769 134.536 611.321 138.671 611.321 143.03C611.321 147.405 616.796 151.551 625.197 154.119C623.26 162.684 624.124 169.494 627.916 171.674C628.796 172.188 629.814 172.43 630.948 172.43C634.649 172.43 639.497 169.789 644.397 165.21C649.295 169.761 654.143 172.373 657.844 172.373C658.973 172.373 659.999 172.125 660.888 171.616C664.668 169.437 665.518 162.638 663.565 154.102C671.91 151.538 677.359 147.394 677.359 143.03C677.359 138.655 671.883 134.508 663.482 131.936C665.419 123.378 664.555 116.562 660.764 114.38C659.889 113.874 658.873 113.618 657.762 113.616ZM657.748 116.615V116.631C658.367 116.631 658.865 116.752 659.283 116.981C661.116 118.032 661.911 122.03 661.292 127.173C661.143 128.438 660.901 129.773 660.604 131.135C657.963 130.485 655.085 129.987 652.055 129.665C650.239 127.175 648.354 124.913 646.456 122.932C650.836 118.86 654.95 116.626 657.751 116.618L657.748 116.615ZM630.865 116.67C633.65 116.67 637.783 118.893 642.174 122.943C640.287 124.925 638.404 127.173 636.616 129.663C633.57 129.985 630.689 130.483 628.05 131.143C627.742 129.795 627.514 128.491 627.351 127.236C626.719 122.096 627.5 118.101 629.316 117.036C629.839 116.788 630.417 116.684 630.865 116.67ZM644.298 125.062C645.55 126.35 646.802 127.792 648.041 129.366C646.83 129.311 645.592 129.272 644.34 129.272C643.074 129.272 641.822 129.3 640.598 129.366C641.808 127.792 643.06 126.353 644.298 125.062ZM644.34 132.288C646.376 132.288 648.404 132.381 650.399 132.544C651.516 134.145 652.605 135.854 653.654 137.662C654.677 139.423 655.607 141.211 656.455 143.016C655.607 144.818 654.677 146.621 653.667 148.382C652.622 150.198 651.541 151.926 650.421 153.527C648.417 153.7 646.387 153.797 644.34 153.797C642.303 153.797 640.276 153.7 638.281 153.541C637.164 151.939 636.074 150.228 635.026 148.423C634.002 146.662 633.072 144.873 632.224 143.068C633.058 141.261 634.002 139.456 635.012 137.692C636.057 135.876 637.139 134.153 638.259 132.552C640.262 132.376 642.292 132.282 644.34 132.282V132.288ZM634.338 132.987C633.677 134.024 633.017 135.086 632.401 136.178C631.781 137.252 631.204 138.33 630.653 139.409C629.924 137.604 629.305 135.804 628.793 134.051C630.554 133.639 632.412 133.27 634.338 132.987ZM654.314 132.987C656.226 133.27 658.07 133.619 659.834 134.051C659.338 135.79 658.719 137.579 658.018 139.37C657.467 138.297 656.89 137.216 656.257 136.14C655.638 135.061 654.977 134.01 654.317 132.987H654.314ZM662.742 134.844C664.074 135.257 665.34 135.716 666.526 136.214C671.291 138.25 674.373 140.914 674.373 143.027C674.359 145.14 671.278 147.815 666.512 149.837C665.356 150.333 664.09 150.778 662.783 151.194C662.013 148.558 661.006 145.812 659.757 142.994C660.995 140.196 661.985 137.463 662.742 134.838V134.844ZM625.885 134.855C626.65 137.496 627.66 140.24 628.912 143.055C627.673 145.853 626.677 148.585 625.923 151.21C624.592 150.798 623.326 150.335 622.154 149.834C617.388 147.807 614.306 145.14 614.306 143.027C614.306 140.914 617.388 138.234 622.154 136.214C623.309 135.719 624.575 135.273 625.885 134.855ZM658.018 146.632C658.747 148.439 659.366 150.242 659.878 151.992C658.117 152.424 656.257 152.79 654.331 153.065C654.991 152.033 655.651 150.968 656.27 149.879C656.89 148.805 657.465 147.71 658.018 146.632ZM630.653 146.687C631.204 147.765 631.781 148.841 632.414 149.92C633.047 150.993 633.694 152.044 634.354 153.065C632.442 152.784 630.598 152.432 628.835 152.003C629.33 150.269 629.952 148.475 630.651 146.684L630.653 146.687ZM660.629 154.906C660.937 156.262 661.179 157.569 661.328 158.821C661.961 163.961 661.179 167.956 659.363 169.024C658.959 169.272 658.433 169.376 657.814 169.376C655.029 169.376 650.897 167.156 646.505 163.103C648.393 161.121 650.275 158.876 652.063 156.389C655.109 156.064 657.99 155.566 660.629 154.906ZM628.078 154.933C630.719 155.577 633.597 156.075 636.627 156.397C638.443 158.887 640.328 161.149 642.226 163.127C637.838 167.208 633.719 169.442 630.917 169.442C630.312 169.428 629.8 169.305 629.396 169.079C627.563 168.033 626.768 164.033 627.387 158.89C627.536 157.624 627.781 156.292 628.078 154.933ZM640.625 156.694C641.836 156.749 643.074 156.788 644.326 156.788C645.592 156.788 646.844 156.76 648.068 156.694C646.857 158.268 645.605 159.707 644.367 161C643.115 159.707 641.863 158.268 640.625 156.694Z" fill="#1A1A1A"/>
</g>
<g clip-path="url(#clip3_11_52)">
<path d="M1066.98 123.208C1058.18 123.208 1052.68 127.61 1050.47 136.415C1053.78 132.013 1057.63 130.362 1062.03 131.462C1064.54 132.09 1066.34 133.911 1068.33 135.931C1071.57 139.216 1075.31 143.019 1083.49 143.019C1092.3 143.019 1097.8 138.616 1100 129.811C1096.7 134.214 1092.85 135.865 1088.45 134.764C1085.93 134.137 1084.14 132.315 1082.15 130.296C1078.91 127.01 1075.17 123.208 1066.98 123.208ZM1050.47 143.019C1041.67 143.019 1036.17 147.421 1033.97 156.226C1037.27 151.824 1041.12 150.173 1045.52 151.274C1048.03 151.901 1049.83 153.722 1051.82 155.742C1055.06 159.027 1058.8 162.83 1066.98 162.83C1075.79 162.83 1081.29 158.428 1083.49 149.623C1080.19 154.025 1076.34 155.676 1071.94 154.575C1069.42 153.948 1067.63 152.127 1065.64 150.107C1062.41 146.822 1058.66 143.019 1050.47 143.019Z" fill="#1A1A1A"/>
</g>
<path d="M508.756 110C507.042 110 505.66 111.381 505.66 113.096V172.942C505.66 174.656 507.042 176.038 508.756 176.038H568.603C570.317 176.038 571.698 174.656 571.698 172.942V113.096C571.698 111.381 570.317 110 568.603 110H508.756ZM556.531 136.828C558.215 136.828 559.707 136.93 561.008 137.133C562.236 137.317 563.44 137.631 564.602 138.069V144.832C564.044 144.447 563.452 144.114 562.833 143.839C562.194 143.551 561.534 143.312 560.86 143.123C559.582 142.767 558.262 142.582 556.936 142.573C556.11 142.573 555.359 142.65 554.682 142.81C554.079 142.939 553.5 143.164 552.968 143.476C552.5 143.762 552.143 144.106 551.887 144.505C551.629 144.907 551.496 145.376 551.502 145.853C551.502 146.392 551.647 146.879 551.931 147.309C552.217 147.738 552.624 148.145 553.15 148.53C553.675 148.915 554.314 149.29 555.065 149.658C555.816 150.03 556.666 150.412 557.613 150.803C558.906 151.345 560.067 151.923 561.096 152.531C562.125 153.142 563.009 153.833 563.746 154.603C564.484 155.371 565.045 156.248 565.436 157.236C565.826 158.224 566.024 159.371 566.024 160.684C566.024 162.492 565.68 164.013 564.998 165.241C564.331 166.451 563.374 167.477 562.213 168.226C560.962 169.02 559.575 169.576 558.122 169.866C556.564 170.196 554.922 170.361 553.197 170.361C551.499 170.369 549.804 170.218 548.134 169.91C546.689 169.66 545.288 169.203 543.973 168.553V161.317C546.46 163.433 549.615 164.603 552.88 164.619C553.796 164.619 554.597 164.536 555.279 164.371C555.965 164.206 556.534 163.975 556.994 163.683C557.45 163.386 557.792 163.039 558.02 162.638C558.272 162.17 558.387 161.64 558.351 161.11C558.315 160.58 558.13 160.07 557.816 159.641C557.408 159.1 556.908 158.635 556.339 158.265C555.633 157.798 554.891 157.389 554.118 157.044C553.203 156.625 552.279 156.226 551.347 155.844C548.822 154.79 546.939 153.5 545.699 151.978C544.46 150.456 543.838 148.616 543.838 146.461C543.838 144.772 544.177 143.322 544.854 142.108C545.531 140.895 546.45 139.896 547.616 139.112C548.85 138.298 550.22 137.711 551.661 137.381C553.257 137.005 554.892 136.819 556.531 136.828ZM514.947 137.345H541.26V143.305H531.817V169.847H524.341V143.305H514.947V137.345Z" fill="#1A1A1A"/>
<g clip-path="url(#clip4_11_52)">
<path d="M887.467 150.511C887.429 150.396 887.377 150.285 887.312 150.183C886.93 149.459 886 149.243 884.54 149.545C879.991 150.483 878.229 149.906 877.591 149.492C881.283 143.856 884.318 137.049 885.959 130.7C886.705 127.808 888.155 121.004 886.295 117.68C886.176 117.453 886.037 117.236 885.88 117.034C882.332 112.5 877.125 110.068 870.821 110.001C866.709 109.958 863.198 110.954 862.247 111.32C861.776 111.233 861.303 111.158 860.828 111.096C859.636 110.88 858.43 110.763 857.219 110.744C853.966 110.694 851.155 111.471 848.827 113.057C846.469 112.174 835.651 108.531 828.956 113.274C825.217 115.923 823.491 120.658 823.825 127.347C823.938 129.598 825.22 136.52 827.244 143.151C828.509 147.296 829.826 150.585 831.188 153.007C832.709 155.742 834.286 157.391 835.905 157.931C837.136 158.341 839.021 158.327 841.017 155.928C843.222 153.277 845.393 150.904 846.368 149.855C847.565 150.503 848.862 150.853 850.193 150.893C850.193 150.897 850.193 150.901 850.194 150.905C849.962 151.181 849.735 151.461 849.514 151.745C848.581 152.929 848.387 153.175 845.386 153.793C844.532 153.969 842.264 154.437 842.231 156.026C842.224 156.363 842.322 156.661 842.484 156.925C843.109 158.089 845.02 158.603 845.277 158.667C848.949 159.585 852.168 158.92 854.554 156.8C854.507 162.938 854.767 168.954 855.504 170.798C856.113 172.319 857.6 176.038 862.298 176.038C862.988 176.038 863.746 175.958 864.581 175.779C869.484 174.727 871.613 172.561 872.437 167.783C872.85 165.387 873.542 159.871 873.919 156.498C873.966 156.305 874.018 156.166 874.076 156.124C874.078 156.122 874.268 155.994 875.252 156.208C875.292 156.217 875.333 156.223 875.373 156.227L876.072 156.288L876.113 156.291C878.443 156.396 881.372 155.898 883.078 155.105C884.849 154.283 888.046 152.265 887.467 150.511ZM829.166 142.679C827.12 135.977 825.924 129.237 825.83 127.348C825.531 121.373 826.977 117.214 830.129 114.986C835.182 111.412 843.446 113.498 846.935 114.628C846.926 114.637 846.917 114.645 846.908 114.654C841.34 120.278 841.472 129.886 841.485 130.474C841.485 130.7 841.504 131.021 841.53 131.463C841.626 133.079 841.804 136.086 841.328 139.493C840.885 142.658 841.861 145.756 844.004 147.993C844.226 148.224 844.458 148.442 844.697 148.646C843.743 149.668 841.669 151.928 839.462 154.583C837.9 156.461 836.822 156.101 836.467 155.983C835.389 155.623 834.23 154.367 833.06 152.344C831.741 150.036 830.409 146.754 829.166 142.679ZM845.695 156.677C845.224 156.559 844.795 156.365 844.506 156.189C844.75 156.081 845.159 155.941 845.835 155.801C849.366 155.075 849.912 154.561 851.103 153.049C851.376 152.702 851.685 152.31 852.113 151.831C852.206 151.728 852.275 151.606 852.316 151.474C852.786 151.058 853.066 151.172 853.518 151.359C853.948 151.537 854.365 152.075 854.535 152.667C854.615 152.947 854.705 153.477 854.411 153.89C851.922 157.373 848.298 157.328 845.695 156.677ZM851.457 145.703L851.312 146.091C850.946 147.072 850.606 147.985 850.395 148.851C848.558 148.845 846.771 148.061 845.413 146.643C843.685 144.841 842.901 142.333 843.26 139.763C843.763 136.164 843.577 133.031 843.477 131.347C843.464 131.111 843.451 130.905 843.444 130.742C844.257 130.021 848.028 128.001 850.716 128.617C851.943 128.898 852.69 129.733 853.001 131.17C854.61 138.61 853.214 141.711 852.092 144.203C851.861 144.716 851.643 145.201 851.457 145.703ZM871.718 158.285C871.672 158.771 871.62 159.319 871.548 159.925L871.147 161.131C871.115 161.226 871.098 161.326 871.096 161.427C871.08 162.733 870.948 163.212 870.78 163.819C870.606 164.449 870.408 165.165 870.286 166.729C869.984 170.62 867.87 172.856 863.635 173.763C859.465 174.658 858.726 172.396 858.074 170.401C858.007 170.192 857.937 169.984 857.862 169.778C857.27 168.166 857.336 165.893 857.429 162.747C857.475 161.203 857.361 157.516 856.521 155.466C856.533 154.659 856.55 153.84 856.573 153.012C856.576 152.907 856.561 152.803 856.531 152.702C856.504 152.509 856.464 152.318 856.41 152.13C856.073 150.952 855.251 149.966 854.265 149.557C853.873 149.395 853.153 149.097 852.289 149.318C852.474 148.559 852.793 147.701 853.14 146.773L853.285 146.382C853.449 145.942 853.654 145.486 853.871 145.003C855.045 142.396 856.652 138.825 854.908 130.758C854.254 127.736 852.072 126.261 848.765 126.604C846.782 126.809 844.968 127.609 844.063 128.068C843.882 128.16 843.702 128.255 843.524 128.354C843.777 125.31 844.731 119.62 848.3 116.021C848.565 115.754 848.844 115.5 849.135 115.261C849.279 115.233 849.415 115.173 849.533 115.084C851.603 113.514 854.195 112.744 857.243 112.793C858.369 112.812 859.449 112.887 860.474 113.016C865.809 113.991 869.4 116.997 871.579 119.572C873.819 122.22 875.033 124.887 875.517 126.326C871.876 125.955 869.399 126.675 868.143 128.469C865.412 132.373 869.638 139.951 871.669 143.593C872.041 144.26 872.362 144.837 872.463 145.082C873.125 146.685 873.981 147.755 874.606 148.536C874.798 148.775 874.984 149.008 875.125 149.21C874.022 149.528 872.041 150.263 872.221 153.935C872.187 154.365 872.105 155.164 871.992 156.177C871.865 156.748 871.799 157.443 871.718 158.285ZM874.169 153.824C874.057 151.536 874.909 151.297 875.81 151.044C875.935 151.01 876.059 150.972 876.182 150.932C876.298 151.035 876.422 151.13 876.551 151.216C878.12 152.251 880.905 152.375 884.825 151.585C884.27 152.072 883.397 152.684 882.202 153.239C881.074 153.763 879.187 154.156 877.394 154.24C875.413 154.332 874.406 154.018 874.169 153.824ZM875.736 128.314C875.719 129.279 875.586 130.155 875.446 131.07C875.294 132.054 875.137 133.072 875.098 134.307C875.059 135.508 875.209 136.758 875.354 137.966C875.648 140.407 875.949 142.92 874.783 145.4C874.59 145.057 874.417 144.702 874.267 144.339C874.122 143.987 873.808 143.423 873.373 142.643C871.679 139.605 867.711 132.491 869.742 129.588C870.787 128.095 873.432 128.03 875.736 128.314ZM876.364 147.613C876.286 147.514 876.208 147.415 876.129 147.317L876.032 147.195C878.03 143.894 877.639 140.629 877.291 137.734C877.149 136.546 877.014 135.423 877.048 134.37C877.083 133.252 877.231 132.294 877.374 131.367C877.55 130.225 877.728 129.044 877.679 127.651C877.716 127.505 877.731 127.333 877.712 127.128C877.586 125.792 876.061 121.795 872.953 118.177C871.281 116.231 868.854 114.057 865.554 112.565C866.999 112.272 868.946 112.005 871.125 112.054C876.769 112.179 881.235 114.292 884.399 118.334C884.466 118.422 884.527 118.514 884.582 118.61C886.572 122.34 883.822 135.876 876.364 147.613ZM852.105 130.783C852.036 131.277 851.255 131.946 850.396 131.946C850.321 131.946 850.247 131.941 850.173 131.931C849.658 131.859 849.137 131.534 848.781 131.062C848.655 130.896 848.45 130.572 848.491 130.28C848.506 130.169 848.562 130.009 848.745 129.87C849.07 129.624 849.713 129.533 850.423 129.632C851.293 129.753 852.191 130.165 852.105 130.783ZM873.926 129.651C873.956 129.869 873.791 130.205 873.505 130.505C873.317 130.702 872.921 131.045 872.382 131.119C872.314 131.129 872.245 131.133 872.176 131.133C871.368 131.133 870.686 130.488 870.633 130.111C870.567 129.625 871.36 129.256 872.177 129.142C872.994 129.028 873.858 129.166 873.926 129.651Z" fill="#1A1A1A"/>
</g>
<g clip-path="url(#clip5_11_52)">
<path d="M975.61 135.047C972.132 117.5 963.91 111.733 963.027 109.528C962.256 108.289 961.568 106.528 961.004 105C960.905 106.557 960.853 107.154 959.565 108.723C957.576 110.503 947.354 120.302 946.523 140.233C945.747 158.824 958.272 169.903 959.972 171.314L960.165 171.472C960.519 174.465 960.822 177.465 961.073 180.472H962.397C962.71 177.226 963.178 174.006 963.8 170.818C964.947 169.887 965.462 169.362 966.139 168.638C969.344 165.249 971.892 161.129 973.616 156.544C975.341 151.96 976.205 147.012 976.152 142.022C976.179 139.462 975.868 136.796 975.61 135.047ZM960.927 160.818C960.927 160.818 960.927 134.745 961.684 134.748C962.27 134.748 963.032 168.381 963.032 168.381C961.984 168.239 960.927 162.846 960.927 160.818Z" fill="#1A1A1A"/>
</g>
<defs>
<linearGradient id="paint0_linear_11_52" x1="0" y1="0" x2="1500" y2="500" gradientUnits="userSpaceOnUse">
<stop stop-color="#7F7FD5"/>
<stop offset="0.505" stop-color="#86A8E7"/>
<stop offset="1" stop-color="#91EAE4"/>
</linearGradient>
<clipPath id="clip0_11_52">
<rect width="66.0377" height="66.0377" fill="white" transform="translate(716.981 110)"/>
</clipPath>
<clipPath id="clip1_11_52">
<rect width="66.0377" height="66.0377" fill="white" transform="translate(400 110)"/>
</clipPath>
<clipPath id="clip2_11_52">
<rect width="66.0377" height="66.0377" fill="white" transform="translate(611.321 110)"/>
</clipPath>
<clipPath id="clip3_11_52">
<rect width="66.0377" height="66.0377" fill="white" transform="translate(1033.96 110)"/>
</clipPath>
<clipPath id="clip4_11_52">
<rect width="66.0377" height="66.0377" fill="white" transform="translate(822.642 110)"/>
</clipPath>
<clipPath id="clip5_11_52">
<rect width="66.0377" height="66.0377" fill="white" transform="translate(928.302 110)"/>
</clipPath>
</defs>
</svg>
